<?xml version="1.0" encoding="UTF-8" standalone="no"?>
<!-- Created with Inkscape (http://www.inkscape.org/) -->

<svg
   width="1024"
   height="1024"
   viewBox="0 0 270.93332 270.93334"
   version="1.1"
   id="svg5"
   xml:space="preserve"
   inkscape:version="1.2.1 (9c6d41e410, 2022-07-14)"
   sodipodi:docname="outstar_online.svg"
   inkscape:export-filename="..\png\outstar_online.png"
   inkscape:export-xdpi="48"
   inkscape:export-ydpi="48"
   xmlns:inkscape="http://www.inkscape.org/namespaces/inkscape"
   xmlns:sodipodi="http://sodipodi.sourceforge.net/DTD/sodipodi-0.dtd"
   xmlns:xlink="http://www.w3.org/1999/xlink"
   xmlns="http://www.w3.org/2000/svg"
   xmlns:svg="http://www.w3.org/2000/svg"><sodipodi:namedview
     id="namedview7"
     pagecolor="#505050"
     bordercolor="#ffffff"
     borderopacity="1"
     inkscape:showpageshadow="0"
     inkscape:pageopacity="0"
     inkscape:pagecheckerboard="1"
     inkscape:deskcolor="#505050"
     inkscape:document-units="mm"
     showgrid="false"
     inkscape:zoom="0.35355339"
     inkscape:cx="799.03066"
     inkscape:cy="475.17575"
     inkscape:window-width="1360"
     inkscape:window-height="697"
     inkscape:window-x="-8"
     inkscape:window-y="-8"
     inkscape:window-maximized="1"
     inkscape:current-layer="layer1" /><defs
     id="defs2"><linearGradient
       inkscape:collect="always"
       id="linearGradient7653"><stop
         style="stop-color:#ff171c;stop-opacity:1;"
         offset="0"
         id="stop7649" /><stop
         style="stop-color:#640f0f;stop-opacity:1;"
         offset="1"
         id="stop7651" /></linearGradient><radialGradient
       inkscape:collect="always"
       xlink:href="#linearGradient7653"
       id="radialGradient7655"
       cx="118.59808"
       cy="101.39466"
       fx="118.59808"
       fy="101.39466"
       r="81.476943"
       gradientUnits="userSpaceOnUse"
       gradientTransform="matrix(0.99825115,0,0,1.0928569,0.20740344,-9.4151774)" /><filter
       inkscape:label="Thick Paint"
       inkscape:menu="Bumps"
       inkscape:menu-tooltip="Thick painting effect with turbulence"
       style="color-interpolation-filters:sRGB;"
       id="filter19514"
       x="-0.028743529"
       y="-0.012151318"
       width="1.0574871"
       height="1.0243026"><feGaussianBlur
         result="result6"
         stdDeviation="0.9"
         id="feGaussianBlur19496" /><feTurbulence
         type="fractalNoise"
         baseFrequency="0.12"
         numOctaves="3"
         result="result2"
         id="feTurbulence19498" /><feDisplacementMap
         yChannelSelector="A"
         xChannelSelector="R"
         scale="10"
         in2="result2"
         result="result5"
         in="result6"
         id="feDisplacementMap19500" /><feBlend
         in="result6"
         in2="result5"
         mode="lighten"
         result="fbSourceGraphic"
         id="feBlend19502" /><feColorMatrix
         result="result2"
         type="luminanceToAlpha"
         in="fbSourceGraphic"
         id="feColorMatrix19504" /><feDiffuseLighting
         diffuseConstant="0.65"
         result="result1"
         surfaceScale="-4"
         id="feDiffuseLighting19508"><feDistantLight
           azimuth="225"
           elevation="35"
           id="feDistantLight19506" /></feDiffuseLighting><feComposite
         result="result3"
         k3="0.5"
         k1="1.37"
         in="result1"
         operator="arithmetic"
         in2="fbSourceGraphic"
         id="feComposite19510" /><feComposite
         result="result5"
         operator="in"
         in="result3"
         in2="result3"
         id="feComposite19512" /></filter><filter
       inkscape:label="Out of Focus"
       inkscape:menu="Bumps"
       inkscape:menu-tooltip="Thick painting effect with turbulence"
       style="color-interpolation-filters:sRGB;"
       id="filter19534"
       x="-0.069178874"
       y="-0.063190241"
       width="1.1383577"
       height="1.1263805"><feGaussianBlur
         result="result6"
         stdDeviation="0.9"
         id="feGaussianBlur19516" /><feTurbulence
         type="fractalNoise"
         baseFrequency="0.12"
         numOctaves="3"
         result="result2"
         id="feTurbulence19518" /><feDisplacementMap
         yChannelSelector="A"
         xChannelSelector="R"
         scale="10"
         in2="result2"
         result="result5"
         in="result6"
         id="feDisplacementMap19520" /><feBlend
         in="result6"
         in2="result5"
         mode="lighten"
         result="fbSourceGraphic"
         id="feBlend19522" /><feColorMatrix
         result="result2"
         type="luminanceToAlpha"
         in="fbSourceGraphic"
         id="feColorMatrix19524" /><feDiffuseLighting
         diffuseConstant="0.65"
         result="result1"
         surfaceScale="-4"
         id="feDiffuseLighting19528"><feDistantLight
           azimuth="225"
           elevation="35"
           id="feDistantLight19526" /></feDiffuseLighting><feComposite
         result="result3"
         k3="0.5"
         k1="1.37"
         in="result1"
         operator="arithmetic"
         in2="fbSourceGraphic"
         id="feComposite19530" /><feComposite
         result="fbSourceGraphic"
         operator="in"
         in="result3"
         in2="result3"
         id="feComposite19532" /><feColorMatrix
         result="fbSourceGraphicAlpha"
         in="fbSourceGraphic"
         values="0 0 0 -1 0 0 0 0 -1 0 0 0 0 -1 0 0 0 0 1 0"
         id="feColorMatrix20952" /><feFlood
         id="feFlood20954"
         flood-opacity="1"
         flood-color="rgb(0,0,0)"
         result="flood"
         in="fbSourceGraphic" /><feColorMatrix
         id="feColorMatrix20956"
         in="fbSourceGraphic"
         values="1 0 0 0 0 0 1 0 0 0 0 0 1 0 0 -0.2125 -0.7154 -0.0721 1 0 "
         result="colormatrix1" /><feGaussianBlur
         id="feGaussianBlur20958"
         in="colormatrix1"
         stdDeviation="3 3"
         result="blur" /><feColorMatrix
         id="feColorMatrix20960"
         in="blur"
         values="1 0 0 0 0 0 1 0 0 0 0 0 1 0 0 0 0 0 6 -3 "
         result="colormatrix2" /><feBlend
         in2="flood"
         id="feBlend20962"
         in="colormatrix2"
         mode="normal"
         result="blend" /><feComposite
         in2="blend"
         id="feComposite20964"
         in="blend"
         operator="arithmetic"
         k2="1"
         result="composite1" /><feComposite
         in2="fbSourceGraphic"
         id="feComposite20966"
         operator="in" /></filter></defs><g
     inkscape:label="Layer 1"
     inkscape:groupmode="layer"
     id="layer1"
     style="display:inline"><g
       id="g302"
       inkscape:label="star"
       transform="matrix(1.66566,0,0,1.5241653,-62.077414,-19.07556)"
       style="display:inline"><ellipse
         style="display:inline;fill:url(#radialGradient7655);fill-opacity:1;stroke:#640f2d;stroke-width:3.32499;stroke-linecap:square;stroke-miterlimit:3;stroke-dasharray:none;stroke-opacity:1;paint-order:stroke fill markers;filter:url(#filter19534)"
         id="path1215"
         cx="118.59808"
         cy="101.39466"
         inkscape:label="star"
         rx="79.666626"
         ry="87.216751" /><ellipse
         style="fill:#ffffff;fill-opacity:1;stroke:none;stroke-width:0.293875;stroke-linecap:square;stroke-miterlimit:3;stroke-opacity:0.985765;paint-order:stroke fill markers"
         id="path520"
         inkscape:label="white_center"
         ry="31.345293"
         rx="21.032881"
         cy="101.39466"
         cx="118.59808" /><path
         style="display:inline;fill:#ff0000;fill-opacity:1;stroke:none;stroke-width:0.830278;stroke-linecap:butt;stroke-linejoin:miter;stroke-dasharray:none;stroke-opacity:1;paint-order:normal;filter:url(#filter19514)"
         d="m 116.94596,184.45832 c -0.85558,-7.51176 -3.07543,-6.60147 -3.10849,-12.68748 -5.51385,-7.8369 13.50868,-7.97365 7.77277,-0.86568 1.71402,1.334 2.13195,-4.68891 1.08455,1.9851 -2.7382,5.14892 -4.0725,27.91324 -5.74883,11.56806 z m 1.46352,-22.47433 c -6.34943,-3.68077 -12.4427,-29.49025 -18.22232,-17.54066 -10.364378,6.21807 7.33022,-11.23652 -0.212769,-13.32873 1.539889,-2.83302 -4.801842,-0.47363 -3.801107,-4.17387 -3.04675,-4.77817 -15.576457,1.11722 -14.819422,-2.33986 3.73278,-5.42211 11.162087,-6.92032 6.430332,-12.32366 -3.373687,-6.44456 1.719853,-8.93169 0.574901,-15.555778 C 88.23477,94.20295 75.201577,83.979213 84.175258,86.45702 c 6.501271,2.419192 9.32199,1.70114 12.239133,-2.702571 0.371741,-2.94707 0.561211,-13.695621 2.131061,-13.926751 3.544258,5.419121 6.959938,-2.660682 7.107788,-6.057537 3.16397,-10.759871 6.75696,-12.833873 7.26921,-18.271119 0.81505,-8.438323 4.23065,-16.144496 4.51881,-24.592633 -0.026,-4.114848 1.205,-13.8078159 2.21852,-4.439069 1.51645,10.43281 1.79991,21.047159 4.86305,31.18716 1.91669,6.253308 0.57488,4.640525 1.22748,6.875054 1.39593,4.77974 4.15004,5.324756 5.70162,13.806857 1.99457,7.455892 0.56657,4.864925 5.21253,8.383034 2.21896,-3.211128 4.56297,-12.094685 4.22895,-2.736547 -3.40889,2.770622 2.80132,4.949465 0.85495,9.655724 1.87837,6.87805 6.41428,9.854549 14.10214,7.924242 2.37453,2.12492 -9.32026,6.8377 -5.48855,12.570626 1.72442,5.94828 -3.51543,11.2069 -1.74724,16.26513 3.88239,2.22263 9.51054,8.2113 1.34548,5.14419 -6.29657,-3.00705 -8.42498,-1.4844 -9.60655,1.77394 -5.90054,4.93642 -5.6767,7.77706 -3.20264,14.9066 -2.78597,-6.94956 -7.21552,0.77225 -10.1793,6.70582 -1.14514,0.7781 -6.46334,13.06924 -8.56222,13.05482 z m 7.01898,-50.99287 c 3.02207,-3.44251 12.37868,-4.6713 12.37868,-4.6713 0,0 -9.33493,-0.96492 -12.37868,-4.33497 -4.07336,-4.510016 -5.09176,-18.178083 -5.09176,-18.178083 0,0 -1.87034,13.52938 -6.02746,18.039253 -2.79533,3.03254 -11.12894,4.34027 -11.12894,4.34027 0,0 8.37776,1.8552 11.12894,5.05426 4.14256,4.81695 5.91203,18.74936 5.91203,18.74936 0,0 1.01928,-14.22826 5.20719,-18.99879 z m -23.80274,23.28395 c 0.51004,-0.71614 0.51004,0.71613 0,0 z m -1.996267,-4.39181 c 0.510077,-0.71616 0.509997,0.71618 0,0 z m 41.921747,-3.99255 c 0.51006,-0.71617 0.51006,0.71617 0,0 z"
         id="path306"
         sodipodi:nodetypes="cssccsssscsssssccsssasssscsssssssacacacacassssss"
         inkscape:label="bright_red" /></g></g></svg>
