<?xml version="1.0" encoding="UTF-8" standalone="no"?>
<!-- Created with Inkscape (http://www.inkscape.org/) -->

<svg
   width="210mm"
   height="297mm"
   viewBox="0 0 210 297"
   version="1.1"
   id="svg5"
   inkscape:version="1.2.1 (9c6d41e410, 2022-07-14)"
   sodipodi:docname="dark_level_portrait.svg"
   xml:space="preserve"
   xmlns:inkscape="http://www.inkscape.org/namespaces/inkscape"
   xmlns:sodipodi="http://sodipodi.sourceforge.net/DTD/sodipodi-0.dtd"
   xmlns:xlink="http://www.w3.org/1999/xlink"
   xmlns="http://www.w3.org/2000/svg"
   xmlns:svg="http://www.w3.org/2000/svg"><sodipodi:namedview
     id="namedview7"
     pagecolor="#505050"
     bordercolor="#ffffff"
     borderopacity="1"
     inkscape:showpageshadow="0"
     inkscape:pageopacity="0"
     inkscape:pagecheckerboard="1"
     inkscape:deskcolor="#505050"
     inkscape:document-units="mm"
     showgrid="false"
     inkscape:zoom="1.8707913"
     inkscape:cx="316.71091"
     inkscape:cy="390.74375"
     inkscape:window-width="1360"
     inkscape:window-height="705"
     inkscape:window-x="-8"
     inkscape:window-y="-8"
     inkscape:window-maximized="1"
     inkscape:current-layer="layer1" /><defs
     id="defs2"><linearGradient
       inkscape:collect="always"
       id="linearGradient3081"><stop
         style="stop-color:#c800c8;stop-opacity:1;"
         offset="0"
         id="stop3077" /><stop
         style="stop-color:#280028;stop-opacity:1;"
         offset="1"
         id="stop3079" /></linearGradient><linearGradient
       id="linearGradient3036"
       inkscape:swatch="solid"><stop
         style="stop-color:#000000;stop-opacity:1;"
         offset="0"
         id="stop3034" /></linearGradient><radialGradient
       inkscape:collect="always"
       xlink:href="#linearGradient3081"
       id="radialGradient3083"
       cx="87.012009"
       cy="120.31482"
       fx="87.012009"
       fy="120.31482"
       r="43.019083"
       gradientTransform="matrix(0.90026969,0,0,0.83974755,8.6777338,19.280745)"
       gradientUnits="userSpaceOnUse" /><filter
       style="color-interpolation-filters:sRGB;"
       inkscape:label="Drop Shadow"
       id="filter9004"
       x="0"
       y="-0.0097436261"
       width="1"
       height="1.0097436"><feFlood
         flood-opacity="0.6"
         flood-color="rgb(0,0,0)"
         result="flood"
         id="feFlood8994" /><feComposite
         in="flood"
         in2="SourceGraphic"
         operator="in"
         result="composite1"
         id="feComposite8996" /><feGaussianBlur
         in="composite1"
         stdDeviation="0"
         result="blur"
         id="feGaussianBlur8998" /><feOffset
         dx="0"
         dy="-1"
         result="offset"
         id="feOffset9000" /><feComposite
         in="SourceGraphic"
         in2="offset"
         operator="over"
         result="composite2"
         id="feComposite9002" /></filter><filter
       inkscape:label="Black Hole"
       inkscape:menu="Morphology"
       inkscape:menu-tooltip="Creates a black light inside and outside"
       height="1.8740449"
       width="2.1095784"
       y="-0.43702243"
       x="-0.5547892"
       style="color-interpolation-filters:sRGB;"
       id="filter1107"><feGaussianBlur
         stdDeviation="5"
         in="SourceAlpha"
         result="result1"
         id="feGaussianBlur1095" /><feComposite
         operator="arithmetic"
         k2="3.2"
         k1="-1"
         k4="-2"
         result="result3"
         in2="result1"
         id="feComposite1097" /><feColorMatrix
         values="1 0 0 0 0 0 1 0 0 0 0 0 1 0 0 0 0 0 10 0 "
         result="result2"
         id="feColorMatrix1099" /><feComposite
         result="fbSourceGraphic"
         in="SourceGraphic"
         operator="out"
         in2="result2"
         id="feComposite1101" /><feBlend
         mode="multiply"
         in="result1"
         in2="fbSourceGraphic"
         result="result91"
         id="feBlend1103" /><feBlend
         mode="screen"
         in="fbSourceGraphic"
         in2="result91"
         id="feBlend1105" /></filter></defs><g
     inkscape:label="Dark"
     inkscape:groupmode="layer"
     id="layer1"
     style="display:inline"
     inkscape:export-filename="dark_portrait.png"
     inkscape:export-xdpi="62.745586"
     inkscape:export-ydpi="62.745586"><path
       style="display:inline;fill:url(#radialGradient3083);fill-opacity:1;fill-rule:nonzero;stroke-width:0.264583;filter:url(#filter9004)"
       d="m 86.985894,171.39095 c -0.09173,-0.28998 -0.401312,-1.00348 -0.687959,-1.58557 -0.493969,-1.00308 -0.522576,-0.92639 -0.0987,0.26459 0.103584,0.29104 -0.271947,-0.23605 -0.834514,-1.17131 -1.415357,-2.35302 -4.44427,-5.32662 -7.320034,-7.18636 -1.33033,-0.86031 -2.273393,-1.56421 -2.095693,-1.56421 0.826794,0 0.178906,-0.54757 -1.13968,-0.96322 -1.21223,-0.38212 -1.699384,-0.41211 -2.84427,-0.17505 -0.792578,0.1641 -1.419334,0.18501 -1.470247,0.0491 -0.04881,-0.13035 -0.206452,-0.16424 -0.350317,-0.0753 -0.365053,0.22561 -1.545314,-0.94097 -1.545314,-1.5274 0,-0.26568 0.107299,-0.48305 0.238445,-0.48305 0.131146,0 -0.112586,-0.37578 -0.541621,-0.83506 -0.429035,-0.45929 -0.718666,-0.99507 -0.643625,-1.19063 0.08335,-0.2172 -0.05041,-0.35556 -0.343771,-0.35556 -0.264115,0 -0.885176,-0.20202 -1.380132,-0.44894 -1.977245,-0.98638 -6.397345,-0.30611 -7.793358,1.19943 -0.51172,0.55187 -0.648438,0.60461 -0.648438,0.25014 0,-0.48367 1.211469,-1.81087 3.273658,-3.58639 0.829405,-0.71411 1.159716,-1.15052 0.926041,-1.22351 -0.199784,-0.0624 -1.166913,-0.32007 -2.149178,-0.57261 -1.097465,-0.28215 -1.785938,-0.59701 -1.785938,-0.81676 0,-0.19669 0.178594,-0.35761 0.396875,-0.35761 0.222531,0 0.396875,-0.23611 0.396875,-0.53747 0,-0.29561 -0.178593,-0.606 -0.396875,-0.68976 -0.218281,-0.0838 -0.396875,-0.31589 -0.396875,-0.51583 0,-0.19993 -0.327421,-0.44268 -0.727604,-0.53944 -0.400182,-0.0967 -1.084426,-0.42572 -1.520539,-0.73104 -0.436115,-0.30531 -0.971896,-0.52954 -1.190625,-0.49828 -0.218731,0.0313 -0.259045,-0.006 -0.08959,-0.0823 0.216794,-0.0979 0.236262,-0.38958 0.06569,-0.98433 -0.15847,-0.55255 -0.148995,-0.87638 0.02736,-0.93516 0.14837,-0.0495 0.44532,-0.26548 0.659887,-0.48004 0.214566,-0.21457 0.508733,-0.31682 0.6537,-0.22722 0.574937,0.35533 -0.07948,-0.56442 -0.819904,-1.15234 -0.930666,-0.73897 -1.319926,-0.59315 -0.487304,0.18255 0.596389,0.55562 0.478787,1.2481 -0.169701,0.99926 -0.203562,-0.0781 -0.370112,-0.0197 -0.370112,0.12986 0,0.14955 -0.100198,0.20997 -0.22266,0.13429 -0.122463,-0.0757 -0.201737,-0.48933 -0.176163,-0.9192 0.03701,-0.6221 -0.07674,-0.80515 -0.557469,-0.89704 -0.332179,-0.0635 -0.74668,0.0157 -0.92111,0.17598 -0.240326,0.22084 -0.274941,0.17214 -0.142914,-0.20105 0.130347,-0.36843 0.07351,-0.45383 -0.225642,-0.33903 -0.238183,0.0914 -0.399876,0.005 -0.399876,-0.21308 0,-0.20159 -0.148828,-0.42657 -0.330729,-0.49997 -0.25759,-0.10394 -0.255259,-0.13807 0.01053,-0.15434 0.187698,-0.0115 0.824314,0.22554 1.4147,0.52673 0.590389,0.3012 1.129091,0.49197 1.197115,0.42395 0.06803,-0.068 -0.414022,-0.39223 -1.071215,-0.72045 -1.290381,-0.64444 -1.568871,-1.01532 -1.199984,-1.59803 0.167058,-0.2639 0.237236,-0.27621 0.240104,-0.0421 0.0021,0.1819 0.182645,0.33073 0.400926,0.33073 0.614998,0 0.467934,-1.00238 -0.198437,-1.35253 -0.681014,-0.35785 -2.956052,-2.6117 -2.649704,-2.62503 0.111267,-0.005 -0.07467,-0.23964 -0.413187,-0.52177 -0.338524,-0.28214 -0.543549,-0.62939 -0.45561,-0.77167 0.193434,-0.31297 -0.67437,-0.81442 -1.409417,-0.81442 -0.29202,0 -0.615775,-0.13726 -0.719455,-0.30501 -0.138144,-0.22353 0.250693,-0.26519 1.45542,-0.15595 l 1.643931,0.14907 -0.16822,-0.83624 c -0.173117,-0.86059 -1.384813,-3.46121 -2.776064,-5.95816 -0.548799,-0.98496 -0.903968,-2.15609 -1.163481,-3.83646 -0.565446,-3.66129 -0.950973,-6.84094 -0.950973,-7.84317 0,-1.49366 0.422655,-0.53936 0.755673,1.7062 0.171497,1.15641 0.544031,2.49615 0.827855,2.9772 0.283824,0.48104 0.479872,1.02317 0.435663,1.20472 -0.04421,0.18155 -0.02996,0.23934 0.03167,0.12843 0.06163,-0.11092 0.478705,0.18674 0.926838,0.66145 0.869524,0.92111 2.092655,4.22082 2.085223,5.62542 -0.0037,0.69435 0.821214,1.98458 1.268807,1.98458 0.246623,0 -0.01426,-9.87582 -0.273836,-10.36573 -0.284654,-0.53726 -0.02352,-1.3375 0.390851,-1.19775 0.16397,0.0553 0.443171,-0.0885 0.620445,-0.31954 0.290703,-0.3789 0.323138,-0.37469 0.330729,0.0429 0.0046,0.25466 0.127476,0.46302 0.272997,0.46302 0.145521,0 0.264583,0.23813 0.264583,0.52917 0,0.29104 0.127085,0.52916 0.282414,0.52916 0.155326,0 0.212312,-0.22087 0.126632,-0.49082 -0.08568,-0.26995 -0.04172,-0.77596 0.09769,-1.12448 0.164332,-0.41081 0.259371,-0.48078 0.270242,-0.19894 0.024,0.62202 0.69713,0.81194 0.69713,0.19668 0,-0.27451 -0.113393,-0.4991 -0.251984,-0.4991 -0.138591,0 -0.18021,-0.0718 -0.09249,-0.1595 0.08772,-0.0877 0.03652,-0.47468 -0.113789,-0.85989 -0.605557,-1.55198 -0.972222,-3.35263 -0.732576,-3.59759 0.135242,-0.13825 0.245896,-0.58473 0.245896,-0.99219 0,-0.40746 0.116795,-0.74083 0.259543,-0.74083 0.142748,0 0.334248,-0.29766 0.425559,-0.66146 0.09131,-0.3638 0.274722,-0.66146 0.407587,-0.66146 0.132864,0 0.385424,-0.32742 0.561243,-0.7276 0.17582,-0.40019 0.441158,-0.8169 0.589642,-0.92604 0.174773,-0.12847 0.141396,-0.28131 -0.09466,-0.43345 -0.511765,-0.32983 -0.08245,-0.89817 0.55295,-0.73201 0.422738,0.11055 0.498271,0.0334 0.386321,-0.39472 -0.100584,-0.38463 -0.03449,-0.49198 0.238411,-0.38726 0.217715,0.0835 0.377571,-0.0141 0.377571,-0.23053 0,-0.20649 0.208359,-0.49679 0.46302,-0.64511 0.392356,-0.22853 0.341884,-0.2756 -0.330729,-0.30842 -0.455864,-0.0223 -0.596648,-0.0902 -0.330729,-0.15974 0.304038,-0.0795 0.463021,-0.37931 0.463021,-0.8733 0,-0.41377 0.148828,-0.81236 0.330729,-0.88576 0.181901,-0.0734 -0.05622,-0.14285 -0.529167,-0.15434 -0.472942,-0.0115 -0.859895,-0.15383 -0.859895,-0.31633 0,-0.16518 0.233312,-0.23443 0.529166,-0.15706 0.739193,0.1933 0.660337,-0.16497 -0.257487,-1.169859 -0.432657,-0.473703 -0.74051,-0.907415 -0.684117,-0.963809 0.20752,-0.20752 1.157634,0.476565 2.016074,1.451588 0.485355,0.55126 0.973649,0.97396 1.085099,0.93932 0.11145,-0.0346 0.141973,0.0951 0.06783,0.28834 -0.07414,0.19322 0.03187,0.48964 0.23559,0.65871 0.311976,0.25892 0.366041,0.009 0.342768,-1.58547 -0.02151,-1.472966 0.06041,-1.917736 0.369247,-2.004945 0.315412,-0.08907 0.3244,-0.06116 0.04378,0.135945 -0.273357,0.192008 -0.223116,0.282012 0.22248,0.398537 0.497575,0.130117 0.554331,0.06587 0.418803,-0.474115 -0.14906,-0.593915 -0.114461,-0.6125 0.703562,-0.377941 0.473183,0.135681 0.900266,0.366292 0.949076,0.512471 0.04881,0.14618 0.21576,0.18728 0.370999,0.09134 0.190151,-0.11752 0.236082,0.169807 0.140758,0.880499 -0.28095,2.094639 0.132943,2.095159 2.364179,0.003 3.102488,-2.909142 4.315529,-4.227835 4.478991,-4.869109 0.110442,-0.433273 0.433832,-0.641183 1.247502,-0.802023 0.83651,-0.165359 1.104937,-0.343977 1.125792,-0.749128 0.05053,-0.981784 0.582591,-1.634263 1.332656,-1.634263 0.764839,0 1.418087,-0.660704 1.418087,-1.434277 0,-0.982601 0.840952,-2.600626 1.351645,-2.600626 0.275241,0 0.500438,-0.107733 0.500438,-0.239406 0,-0.131675 0.470249,-0.176334 1.044999,-0.09924 0.957532,0.128431 1.059587,0.08203 1.219308,-0.554345 0.09587,-0.381979 0.280464,-0.694507 0.41021,-0.694507 0.129744,0 0.2359,-0.15231 0.2359,-0.338466 0,-0.186155 0.23446,-0.507455 0.52102,-0.713996 0.355772,-0.256426 0.47407,-0.562602 0.372986,-0.965356 -0.173059,-0.68952 0.09102,-1.686348 0.446741,-1.686348 0.135712,0 0.246753,0.32558 0.246753,0.723511 0,0.66027 0.05576,0.619797 0.637939,-0.463021 0.582777,-1.083932 0.602107,-1.226569 0.223576,-1.649553 -0.227899,-0.254661 -0.544738,-0.461198 -0.704086,-0.45897 -0.159345,0.0021 -0.111127,0.119467 0.107154,0.260533 0.238466,0.154109 0.2711,0.258098 0.08176,0.260532 -0.173313,0.0021 -0.389901,-0.116954 -0.481304,-0.264848 -0.0914,-0.147894 -0.297257,-0.187894 -0.457454,-0.08889 -0.185163,0.114437 -0.232013,0.02561 -0.128611,-0.243853 0.125711,-0.327597 -0.149514,-0.525116 -1.211808,-0.869678 -1.404091,-0.455419 -2.169178,-0.909931 -1.531712,-0.909931 0.466764,0 3.524736,0.799163 3.858963,1.008494 0.580597,0.363635 0.874993,0.221096 1.274752,-0.617207 0.457155,-0.958662 2.364843,-3.567806 3.940543,-5.389475 0.925795,-1.070314 1.00888,-1.299333 1.055849,-2.910416 l 0.05098,-1.748687 0.09315,1.623353 c 0.06844,1.192727 0.230381,1.747545 0.610479,2.091527 0.28453,0.257497 0.517326,0.587238 0.517326,0.732759 0,0.145521 -0.216154,0.06897 -0.480343,-0.170122 -0.450453,-0.407653 -0.531082,-0.381391 -1.295662,0.422014 -1.220692,1.28268 -3.297142,4.132345 -4.039147,5.543219 l -0.655778,1.246921 0.57857,0.539017 c 0.652124,0.607549 0.865277,0.66956 0.865277,0.251727 0,-0.455377 1.942386,-3.135832 2.38125,-3.286081 0.218281,-0.07473 0.799962,-0.491918 1.292625,-0.927083 0.492662,-0.435166 0.939456,-0.79121 0.992875,-0.79121 0.05342,0 0.524184,0.472701 1.046141,1.050446 0.52196,0.577745 1.043091,1.02423 1.158068,0.992188 0.11498,-0.03204 0.509244,0.262556 0.876141,0.654663 0.56052,0.599033 0.614289,0.785122 0.336587,1.1649 -0.205602,0.281178 -0.461097,0.371263 -0.676095,0.238387 -0.235328,-0.145442 -0.281807,-0.110371 -0.145669,0.109908 0.109964,0.177924 0.381577,0.253799 0.603584,0.168606 0.222006,-0.08519 0.56715,-0.01921 0.766987,0.14665 0.199837,0.165852 0.363339,0.211064 0.363339,0.100476 0,-0.110588 0.357188,0.24839 0.79375,0.797734 0.436563,0.549344 0.79375,1.165215 0.79375,1.368608 0,0.20339 0.20088,0.676383 0.4464,1.051094 l 0.446399,0.681294 0.233294,-0.624456 c 0.227896,-0.61001 0.242081,-0.612534 0.613175,-0.10917 0.208933,0.283408 0.314946,0.719873 0.235585,0.969923 -0.07936,0.250047 -0.0204,0.531209 0.13105,0.624805 0.151443,0.0936 0.275347,0.452298 0.275347,0.797119 0,0.344818 0.186185,0.813128 0.413745,1.040688 0.227557,0.22756 0.339595,0.53372 0.248967,0.680357 -0.09063,0.146638 0.08037,0.266613 0.380005,0.266613 0.432197,0 0.544783,-0.168595 0.544783,-0.815798 0,-0.502348 0.118192,-0.776401 0.307612,-0.713261 0.534445,0.178147 0.481034,1.340691 -0.152302,3.314996 -0.12641,0.394057 -0.08299,0.595313 0.128421,0.595313 0.175665,0 0.481343,0.208359 0.679289,0.463021 0.342759,0.440973 0.377033,0.440973 0.719793,0 0.441082,-0.567466 0.736043,-0.604311 0.529535,-0.06615 -0.09782,0.254907 0.0054,0.396875 0.288498,0.396875 0.24391,0 0.36316,0.125627 0.26698,0.281254 -0.0956,0.154692 0.0349,0.511879 0.28997,0.79375 0.50802,0.561364 1.06092,0.704623 0.7447,0.192958 -0.34421,-0.556934 -0.35534,-1.574683 -0.0159,-1.453856 0.17295,0.06156 0.28609,0.366699 0.25142,0.67808 -0.0726,0.651941 0.32713,0.764622 0.55996,0.157863 0.12329,-0.321278 0.27028,-0.347485 0.68977,-0.122983 0.2932,0.156916 0.53309,0.459705 0.53309,0.672867 0,0.213161 0.10742,0.387567 0.2387,0.387567 0.13129,0 0.36322,0.357187 0.51541,0.79375 0.15218,0.436562 0.40898,0.79375 0.57066,0.79375 0.16168,0 0.22546,0.110836 0.14174,0.2463 -0.0837,0.135467 -0.0163,0.330298 0.1498,0.432959 0.2187,0.13517 0.27117,-0.297706 0.19021,-1.569217 -0.0615,-0.965732 -0.0329,-1.755876 0.0635,-1.755876 0.0964,0 0.47802,0.238125 0.84802,0.529167 0.37,0.291042 0.78819,0.529167 0.92932,0.529167 0.14113,0 0.40847,0.182991 0.59409,0.406643 0.18562,0.223655 0.58715,0.372483 0.89229,0.330729 0.33207,-0.04544 0.52825,0.05686 0.48866,0.254815 -0.0364,0.181901 0.0364,0.330729 0.16175,0.330729 0.12534,0 0.16785,0.314074 0.0945,0.697939 -0.0994,0.520007 0.0249,0.817362 0.48759,1.166366 0.34155,0.257632 0.74573,0.912984 0.89818,1.456332 0.36428,1.29835 1.09476,1.777098 1.59445,1.044988 0.84302,-1.23513 2.15632,-2.713537 2.60783,-2.935671 0.46467,-0.228611 1.34286,-2.0427 2.22923,-4.604954 0.22653,-0.654843 0.50691,-1.42875 0.62305,-1.719791 0.11614,-0.291042 0.50144,-1.362604 0.85622,-2.38125 0.35479,-1.018646 1.01386,-2.840969 1.46462,-4.049607 0.45075,-1.208637 0.83939,-2.721892 0.86363,-3.36279 0.0751,-1.986622 0.48855,-1.007502 0.48309,1.144159 -0.005,1.967759 -0.59787,7.234898 -0.93334,8.291869 -0.115,0.36235 -0.25828,0.439798 -0.47732,0.258016 -0.45124,-0.374493 -1.38237,0.682004 -1.6039,1.819855 -0.16061,0.824902 -0.13971,0.875215 0.19215,0.46256 0.2048,-0.254661 0.47179,-0.463021 0.5933,-0.463021 0.12152,0 0.53931,-0.305019 0.92844,-0.677822 0.58169,-0.557303 0.73513,-0.605804 0.86292,-0.27278 0.10261,0.267401 -0.11935,0.565176 -0.65317,0.87626 -1.18495,0.690533 -2.26177,3.080477 -2.20137,4.885832 0.033,0.985203 -0.21892,2.210687 -0.84129,4.093192 -0.48859,1.47783 -0.88368,3.02564 -0.87798,3.43958 l 0.0103,0.75261 0.41492,-0.92604 c 0.22821,-0.50932 0.51097,-1.2237 0.62836,-1.5875 0.19833,-0.61463 0.21505,-0.62042 0.23618,-0.0818 0.0125,0.31883 0.15452,0.66114 0.31558,0.76068 0.20925,0.12933 0.20119,0.23761 -0.0282,0.37941 -0.21226,0.13119 -0.22814,0.25588 -0.0469,0.36792 0.15309,0.0946 0.42279,-0.2414 0.61056,-0.76068 0.43267,-1.19651 1.17627,-1.24918 1.42841,-0.10118 0.13001,0.59195 0.24544,0.72646 0.40366,0.47044 0.33429,-0.54088 0.61559,0.37493 0.39344,1.28087 -0.17005,0.69348 -0.16008,0.70261 0.21628,0.19784 0.38597,-0.51764 0.40075,-0.51294 0.67891,0.21566 0.15639,0.40966 0.28435,0.85614 0.28435,0.99219 0,0.13605 0.23812,0.24736 0.52917,0.24736 0.29185,0 0.52916,-0.17639 0.52916,-0.39332 0,-0.21633 0.39965,-0.56031 0.88812,-0.76441 0.55865,-0.23342 1.21078,-0.86903 1.75791,-1.71341 0.78531,-1.21194 2.78127,-2.90225 3.07738,-2.60614 0.0652,0.0652 -0.48147,0.62102 -1.2149,1.23508 -0.73343,0.61406 -1.33839,1.25422 -1.34436,1.42257 -0.0176,0.4979 -2.00832,2.55505 -2.47248,2.55505 -0.23489,0 -0.42707,0.19133 -0.42707,0.42518 0,0.27556 0.14449,0.36973 0.41061,0.26761 0.22584,-0.0867 0.351,-0.0611 0.27814,0.0568 -0.16266,0.26319 0.79301,1.12004 1.00867,0.90438 0.0851,-0.0851 0.15466,0.0161 0.15466,0.2249 0,0.41127 -0.923,1.86435 -2.25185,3.5451 -1.56488,1.97928 -2.30039,3.59937 -2.10129,4.62845 0.1656,0.85593 0.19704,0.88166 0.40582,0.33219 0.12448,-0.32759 0.15996,-0.76855 0.0789,-0.97992 -0.0811,-0.21137 0.0417,-0.65445 0.273,-0.98462 0.23126,-0.33017 0.42047,-0.46178 0.42047,-0.29246 0,0.16931 -0.0986,0.36879 -0.21917,0.44329 -0.12054,0.0745 -0.23289,0.73802 -0.24967,1.47449 -0.0261,1.14598 0.0627,1.40013 0.61605,1.76268 0.3556,0.23299 0.64654,0.64806 0.64654,0.92237 0,0.59969 0.25505,0.62956 0.94162,0.11027 1.2082,-0.91383 1.98632,-0.24245 1.44299,1.24505 -0.91432,2.50313 -1.40549,7.45181 -0.82977,8.36005 0.33204,0.52381 0.5539,-0.53666 0.55821,-2.6682 0.002,-0.98226 0.1081,-1.78594 0.2358,-1.78594 0.90466,0 1.4192,3.73101 0.7389,5.35782 -0.2282,0.5457 -0.31426,0.99218 -0.19124,0.99218 0.39486,0 1.92695,-1.92264 2.41962,-3.03639 0.26249,-0.5934 0.79201,-1.37336 1.1767,-1.73324 l 0.69945,-0.65432 -0.70022,1.5875 c -0.38512,0.87312 -0.93158,1.94468 -1.21436,2.38124 -0.48271,0.74525 -2.08161,3.95486 -2.70199,5.42396 -0.15363,0.36381 -0.25298,0.81912 -0.22079,1.01182 0.0322,0.1927 -0.0698,0.50503 -0.22671,0.69407 -0.47318,0.57014 -0.0554,1.17387 0.73624,1.06381 0.7006,-0.0974 0.69977,-0.0948 -0.0863,0.27383 -0.50781,0.23812 -0.62695,0.37649 -0.33073,0.38412 0.50489,0.013 0.67295,1.07027 0.17013,1.07027 -0.16108,0 -0.21927,0.19185 -0.12929,0.42633 0.12153,0.3167 0.0511,0.38318 -0.27369,0.25853 -0.3513,-0.13481 -0.37667,-0.0947 -0.129,0.20368 0.2608,0.31424 0.59693,0.25403 2.18151,-0.39082 1.96283,-0.79878 2.61212,-0.92693 2.61212,-0.51555 0,0.26141 -0.84839,0.60828 -1.22937,0.50265 -0.35513,-0.0985 -2.52108,1.09889 -3.4443,1.90403 -0.46046,0.40157 -1.29389,0.88008 -1.85208,1.06334 -1.64916,0.54146 -2.72049,1.36139 -5.44396,4.16646 -1.41735,1.45981 -2.71835,2.70132 -2.89111,2.75891 -0.54345,0.18115 0.0427,0.73455 0.78737,0.74335 0.60094,0.007 0.65009,0.0587 0.31511,0.33073 -0.21828,0.17728 -0.56365,0.64568 -0.76748,1.0409 -0.30983,0.60073 -0.31262,0.78847 -0.017,1.14465 0.23784,0.28657 0.26257,0.48442 0.0756,0.60433 -0.15294,0.0981 -0.3617,0.44629 -0.46393,0.77386 -0.10223,0.32758 -0.41593,0.71872 -0.69712,0.86921 -0.66503,0.35591 -0.65524,0.78416 0.0179,0.78416 0.29398,0 0.52917,0.17639 0.52917,0.39687 0,0.26459 -0.26459,0.39688 -0.79375,0.39688 -0.51472,0 -0.79375,0.13403 -0.79375,0.38126 0,0.52084 -0.54321,0.81787 -0.78381,0.42858 -0.13879,-0.22457 -0.4563,-0.24667 -1.0949,-0.0762 -0.72612,0.19382 -0.88607,0.35698 -0.83015,0.84682 0.0643,0.56317 -0.007,0.59652 -0.99213,0.46437 -1.02345,-0.13727 -1.67979,0.14548 -0.99702,0.42951 0.23898,0.0994 0.19293,0.25091 -0.1639,0.53911 -0.33898,0.27379 -0.45458,0.61902 -0.36471,1.08916 0.13125,0.68658 0.13017,0.68703 -0.42975,0.17808 -0.60781,-0.55247 -2.55676,-1.23362 -4.29669,-1.50168 -0.85167,-0.13121 -1.12421,-0.0774 -1.24846,0.24637 -0.10053,0.26195 -0.4851,0.41422 -1.04617,0.41422 -0.944306,0 -3.318309,0.70039 -3.759604,1.10918 -0.165011,0.15285 -0.074,0.17248 0.241839,0.0522 0.947973,-0.36115 0.188389,0.36277 -0.970909,0.92532 -1.324534,0.64273 -5.81532,4.92061 -7.023325,6.69036 -0.464172,0.68002 -1.13484,1.81024 -1.490374,2.51161 -0.540298,1.06585 -0.673812,1.18866 -0.813213,0.74798 z m 1.309796,-6.10041 c 0.447026,-1.03975 1.142098,-2.49425 1.382548,-3.09583 0.953535,-2.10885 0.752577,-2.30806 -2.219706,-2.29184 -2.956919,0.0521 -3.089117,0.25818 -2.067718,2.2296 0.305898,0.59042 0.86147,1.9761 1.199973,3.09781 0.3385,1.12172 0.71188,1.9799 0.829728,1.90706 0.11785,-0.0728 0.367693,-0.66643 0.875175,-1.8468 z m -10.700689,-4.46209 c 0,-0.31778 -0.873744,-0.92673 -1.115409,-0.77738 -0.163547,0.10108 -0.01786,0.31718 0.35206,0.52223 0.714817,0.39622 0.763349,0.41244 0.763349,0.25515 z m 5.803009,-15.08913 c 0.201789,-0.12472 0.200953,-0.3303 -0.0029,-0.71119 -0.494483,-0.92396 -0.03509,-0.85949 0.53464,0.075 0.298342,0.48935 0.538248,0.71114 0.533125,0.49286 -0.01019,-0.43393 -1.15652,-2.34769 -4.75121,-7.93193 -2.245627,-3.48851 -6.486321,-9.5823 -10.962248,-15.75252 -0.172934,-0.2384 0.190141,-0.92101 1.215128,-2.28454 0.803963,-1.0695 2.432511,-3.31377 3.618995,-4.98726 1.186484,-1.67349 2.862799,-3.93568 3.725143,-5.02708 0.862345,-1.09141 2.999356,-4.1275 4.748913,-6.74688 1.74956,-2.61937 3.487369,-5.213524 3.8618,-5.764781 0.974585,-1.43483 1.424265,-1.519602 2.306592,-0.434829 1.307296,1.607248 5.959904,8.18514 9.157171,12.94649 4.325841,6.44201 7.182241,10.58398 7.901301,11.45742 l 0.61068,0.74181 -0.59018,0.87244 c -0.32459,0.47985 -1.06537,1.57478 -1.64616,2.4332 -0.58079,0.85841 -2.01417,2.87044 -3.18529,4.47117 -2.505416,3.42448 -4.69199,6.73285 -6.032983,9.12812 -1.134462,2.02637 -2.33153,3.45763 -2.491208,2.97859 -0.155867,-0.46756 -1.125168,0.0869 -1.125168,0.6436 0,0.37465 0.06832,0.36674 0.542952,-0.0628 0.5379,-0.48679 0.540417,-0.4847 0.270542,0.22513 l -0.27241,0.71649 0.853937,-0.79055 c 0.469665,-0.43481 1.425509,-1.32751 2.124094,-1.98378 1.207349,-1.13423 2.047655,-1.72669 2.449012,-1.72669 0.100147,0 0.03392,0.17852 -0.147159,0.39672 -0.355682,0.42857 -0.247626,0.42256 2.724867,-0.15149 0.698384,-0.13488 1.591354,-0.23768 1.984374,-0.22846 0.69137,0.0162 0.69524,0.0246 0.11927,0.25606 -0.90302,0.36297 -0.72887,0.61461 0.79375,1.14692 2.36634,0.82728 5.70425,2.47452 6.37649,3.14676 0.67743,0.67742 1.15987,0.7249 2.37198,0.23342 0.40965,-0.16611 0.85851,-0.30201 0.99744,-0.30201 0.13895,0 0.70125,-0.26789 1.24958,-0.59531 0.54832,-0.32743 1.23056,-0.73306 1.51609,-0.90142 0.28553,-0.16836 0.47946,-0.46602 0.43095,-0.66146 -0.0485,-0.19544 -10e-4,-0.26822 0.10543,-0.16173 0.58266,0.58266 2.91666,-4.03545 3.93962,-7.79499 0.82921,-3.04749 1.18663,-7.43392 0.90054,-11.05176 -0.27053,-3.4211 -0.46843,-4.43215 -0.77327,-3.95044 -0.1474,0.23292 -0.24112,0.2586 -0.24362,0.0667 -0.002,-0.17151 -0.17014,-0.47793 -0.37315,-0.68094 -0.22312,-0.22312 -0.31373,-0.65879 -0.22909,-1.10156 0.10122,-0.5295 0.20237,-0.63407 0.36505,-0.3774 0.38482,0.60715 0.27782,-0.41873 -0.18967,-1.8185 -1.12719,-3.37511 -3.26538,-7.1318 -5.90007,-10.36609 -0.52087,-0.63942 -2.41317,-2.38173 -4.20511,-3.871792 -2.50706,-2.084726 -3.94097,-3.047003 -6.22076,-4.174659 -5.561285,-2.750791 -8.743764,-3.473966 -15.265825,-3.46895 -4.339733,0.0033 -4.824243,0.05531 -7.723137,0.828466 -6.155462,1.641697 -11.259674,4.468879 -15.16332,8.398835 -4.55649,4.58721 -8.238876,11.47748 -9.550543,17.87046 -1.135104,5.53241 -0.05081,15.34583 1.695577,15.34583 0.138944,0 0.311515,0.22521 0.383495,0.50046 0.09015,0.34473 0.470242,0.55779 1.221484,0.68471 0.98295,0.16607 1.448628,0.68718 0.892175,0.99838 -0.109141,0.061 -0.04961,0.0747 0.132291,0.0303 0.181901,-0.0443 0.330729,0.0942 0.330729,0.30795 0,0.21371 0.0893,0.3645 0.198438,0.33509 0.10914,-0.0294 0.693023,0.20529 1.297516,0.52158 1.182347,0.61864 1.328182,0.54062 1.645973,-0.88059 0.01818,-0.0813 0.157917,-0.0707 0.310505,0.0236 0.173162,0.10702 0.185451,0.28691 0.0327,0.47863 -0.253217,0.31783 -0.0318,1.28216 0.289216,1.25959 0.09999,-0.007 0.499684,0.28182 0.888201,0.64188 0.388514,0.36007 0.8676,0.65466 1.06463,0.65466 0.197033,0 0.358241,0.23813 0.358241,0.52917 0,0.5856 0.40931,0.71692 0.618521,0.19844 0.0847,-0.2099 0.141084,-0.17282 0.15434,0.1015 0.02215,0.45811 1.955805,2.34589 2.402901,2.34589 0.145102,0 0.263821,0.2311 0.263821,0.51356 0,0.28245 0.107958,0.58027 0.239908,0.66182 0.131951,0.0815 0.173427,-0.10596 0.09217,-0.41668 -0.106809,-0.40844 -0.045,-0.52921 0.223113,-0.43594 0.203967,0.071 0.3342,0.33228 0.289404,0.58071 -0.07645,0.42399 -0.03988,0.42447 0.595998,0.008 0.651975,-0.42719 0.711575,-0.41785 1.585147,0.24846 0.499237,0.38078 1.141034,0.69233 1.426216,0.69233 0.285181,0 0.582914,0.16784 0.661627,0.37296 0.103939,0.27086 0.383307,0.32394 1.020495,0.19392 1.490666,-0.30418 4.740913,-0.15742 4.977093,0.22473 0.317164,0.51318 1.058429,0.10728 1.068075,-0.58487 0.0081,-0.58066 0.02283,-0.58458 0.387334,-0.10307 0.208405,0.2753 0.423381,0.63249 0.477727,0.79375 0.06843,0.20306 0.227653,0.18688 0.51789,-0.0526 0.364334,-0.30067 0.403548,-0.2661 0.300149,0.26458 -0.116041,0.59556 -0.112761,0.59659 0.134564,0.0422 0.13943,-0.31253 0.381235,-0.64718 0.537348,-0.74366 z m 11.841042,0.12127 c 0.294283,0 0.365528,-0.16732 0.253479,-0.59531 -0.145481,-0.5557 0.313703,-2.05052 0.629891,-2.05052 0.0781,0 0.108524,0.5807 0.06761,1.29044 -0.05217,0.90505 0.04608,1.39042 0.328975,1.6252 0.505658,0.41966 0.837308,0.13618 0.423714,-0.36217 -0.530122,-0.63876 0.326649,-1.99496 1.273521,-2.01589 0.263176,-0.006 0.201946,0.15805 -0.198437,0.53106 -0.576966,0.53753 -0.814832,1.22497 -0.317503,0.91761 0.149982,-0.0927 0.194337,0.0135 0.103984,0.24896 -0.08666,0.22585 -0.02577,0.41062 0.135321,0.41062 0.161092,0 0.292891,0.19248 0.292891,0.42774 0,0.30523 0.160274,0.38582 0.559655,0.28138 0.307808,-0.0805 0.791311,-0.005 1.074446,0.16758 0.425021,0.25918 0.578131,0.22856 0.877951,-0.17559 0.23157,-0.31214 0.48938,-0.41078 0.71149,-0.27224 0.65173,0.40653 1.27438,0.37425 1.27438,-0.066 0,-0.32789 0.0829,-0.35884 0.35535,-0.1327 0.27597,0.22904 0.42372,0.14485 0.66145,-0.37693 0.16836,-0.36951 0.30611,-0.91845 0.30611,-1.21986 0,-0.77087 -1.54952,-2.06351 -2.47979,-2.06869 -0.65074,-0.004 -0.71188,-0.0622 -0.42532,-0.40749 0.41116,-0.49541 0.28772,-0.63674 -0.62192,-0.71202 -0.38846,-0.0322 -0.706302,-0.19795 -0.706302,-0.36845 0,-0.18079 -0.740711,-0.41649 -1.777351,-0.56555 -1.617329,-0.23255 -1.885326,-0.20083 -2.976563,0.35234 -0.659566,0.33434 -1.169445,0.67434 -1.133065,0.75555 0.147191,0.32856 0.05127,0.67682 -0.186412,0.67682 -0.384873,0 -1.588455,1.28711 -2.167329,2.31775 -0.472331,0.84094 -0.480679,0.95876 -0.09788,1.38174 0.445545,0.49232 2.043766,0.49404 2.209091,0.002 0.164737,-0.48991 0.515154,-0.26488 0.724598,0.46532 0.196205,0.68405 0.214863,0.69197 0.311669,0.13229 0.05663,-0.32742 0.287168,-0.59531 0.512299,-0.59531 z m -0.446135,-0.51337 c 0,-0.19085 -0.172116,-0.27095 -0.396875,-0.1847 -0.311692,0.11961 -0.396875,-0.0731 -0.396875,-0.89773 0,-0.57752 0.12609,-1.05003 0.280199,-1.05003 0.15411,0 0.208775,0.11556 0.121478,0.25681 -0.0873,0.14125 0.03352,0.62856 0.268478,1.08292 0.234958,0.45436 0.358887,0.89442 0.275397,0.97791 -0.08349,0.0835 -0.151802,1.6e-4 -0.151802,-0.18518 z m -36.777465,-0.81008 c -0.679572,-0.95437 -1.237157,-1.27331 -2.101172,-1.20189 -0.691743,0.0572 -1.014778,0.51477 -0.561274,0.79505 0.172463,0.10658 0.210388,-0.008 0.101393,-0.30649 -0.159435,-0.43653 -0.124735,-0.43336 0.411292,0.0376 0.495816,0.43561 0.559094,0.44574 0.413433,0.0661 -0.0978,-0.25486 -0.04564,-0.44819 0.120904,-0.44819 0.161092,0 0.292891,0.22839 0.292891,0.50753 0,0.97032 0.307467,1.34456 1.104657,1.34456 h 0.78346 z m 10.351965,-0.86377 c -0.261307,-0.25936 -0.291697,-0.22897 -0.148113,0.14811 0.09936,0.26094 0.247303,0.40778 0.328766,0.32632 0.08146,-0.0815 1.69e-4,-0.29495 -0.180653,-0.47443 z m 21.570902,-1.31139 c -0.166227,-0.63565 0.692914,-1.79305 1.330981,-1.79305 0.250113,0 0.339365,-0.35763 0.306446,-1.22792 -0.03567,-0.94305 0.07125,-1.31182 0.460882,-1.58955 0.279033,-0.19889 0.908924,-0.74766 1.399757,-1.21947 0.881814,-0.84766 0.88496,-0.85894 0.264584,-0.94935 -0.829588,-0.1209 -1.289302,-0.52256 -1.289302,-1.12649 0,-0.53339 0.779786,-0.83613 1.830234,-0.71056 0.538486,0.0644 0.792025,-0.19078 1.603648,-1.61382 0.754692,-1.32323 1.158745,-1.75415 1.860661,-1.98438 0.720648,-0.23637 1.379138,-0.96916 3.3551,-3.73367 2.44277,-3.41761 2.57057,-3.64085 2.47651,-4.32603 -0.0285,-0.20741 0.0785,-0.27844 0.25509,-0.16932 0.83283,0.51472 -3.56333,-6.02388 -6.049987,-8.9984 -0.851574,-1.01865 -1.699228,-2.14974 -1.883674,-2.51354 -0.503833,-0.99375 -8.586573,-13.217826 -8.739248,-13.216961 -0.07276,5.29e-4 -0.987684,1.277758 -2.033164,2.838541 -3.03126,4.52534 -7.676753,11.25185 -10.639401,15.4055 -3.131087,4.38979 -3.874727,5.74547 -3.646733,6.6481 0.164113,0.64973 1.838703,3.2398 3.846978,5.95009 0.634547,0.85636 1.682676,1.8838 2.329177,2.2832 0.887365,0.54821 1.309092,1.04775 1.720712,2.03822 l 0.545256,1.31203 1.467025,0.0784 c 1.230053,0.0658 1.480701,0.16393 1.551691,0.60762 0.04958,0.30988 -0.176583,0.74845 -0.545774,1.05833 l -0.630442,0.52917 1.413095,2.11666 c 0.7772,1.16417 1.420627,2.2473 1.429837,2.40697 0.0092,0.15966 0.284634,0.42098 0.612056,0.58071 l 0.595312,0.29041 -0.595312,0.17775 c -0.327422,0.0978 -0.595313,0.28293 -0.595313,0.41148 0,0.28589 1.259917,0.27525 1.984375,-0.0168 0.301442,-0.1215 0.671494,-0.0995 0.859896,0.051 0.225118,0.17988 0.330729,0.16944 0.330729,-0.0327 0,-0.50828 0.814136,-0.32687 1.635752,0.36448 0.974106,0.81965 1.384398,0.84507 1.182566,0.0733 z M 110.96533,99.223372 c -0.26131,-0.259361 -0.2917,-0.228971 -0.14811,0.148113 0.0994,0.260938 0.2473,0.407781 0.32876,0.326319 0.0815,-0.08146 1.7e-4,-0.294955 -0.18065,-0.474432 z M 92.932293,89.221053 c 0.58678,-0.883417 1.066874,-1.812607 1.066874,-2.064866 0,-0.482005 -1.348628,-2.764647 -1.797203,-3.041883 -0.144724,-0.08944 -0.343313,0.274836 -0.444833,0.815988 -0.100865,0.53766 -0.405027,1.412007 -0.675916,1.942992 -0.270888,0.530984 -0.446103,1.191365 -0.389368,1.467514 0.05673,0.276148 0.174641,0.948573 0.262017,1.494276 0.226189,1.412666 0.737716,1.253908 1.978429,-0.614021 z m -4.8021,-0.113583 c 0.165759,-0.363802 0.208683,-0.661458 0.09538,-0.661458 -0.324948,0 -0.840994,0.600702 -0.840994,0.978958 0,0.56887 0.424019,0.388311 0.745609,-0.3175 z m 1.452605,-2.050521 c 0.350705,-0.472942 0.972989,-1.468596 1.382853,-2.212564 l 0.745204,-1.352669 -0.750321,-1.28033 c -0.739923,-1.262583 -0.755685,-1.272256 -1.137076,-0.697851 -0.212712,0.320362 -0.550823,0.582477 -0.751353,0.582477 -0.460365,0 -0.457137,-0.05259 0.07122,-1.16055 0.431787,-0.905467 0.428207,-0.923528 -0.386879,-1.952656 -1.448192,-1.828494 -1.444109,-1.828096 -2.762864,-0.269253 -1.886701,2.230188 -1.959681,2.475042 -0.982713,3.297105 0.625031,0.525928 0.783831,0.830984 0.650915,1.250394 -0.312449,0.985906 -0.141496,1.831594 0.580999,2.874155 0.678587,0.979199 1.714844,1.748666 2.385112,1.771044 0.174496,0.0058 0.604206,-0.376359 0.954908,-0.849302 z m -6.244516,-2.782231 c 0.472581,-0.880483 0.471853,-0.885886 -0.187031,-1.387911 -0.656772,-0.500415 -0.665975,-0.499504 -1.298948,0.128405 -0.494133,0.49018 -0.633428,0.901081 -0.619426,1.827217 0.02598,1.718085 0.290822,1.99693 1.023704,1.077807 0.334002,-0.418878 0.820767,-1.159359 1.081701,-1.645518 z m 28.035188,14.578277 c -0.24663,-0.246626 -0.22014,-0.61736 0.0441,-0.61736 0.12127,0 0.22049,0.178593 0.22049,0.396875 0,0.449619 -0.0193,0.465733 -0.26459,0.220485 z m 0.61736,-0.385191 c 0,-0.440634 0.80291,-1.293241 1.21146,-1.286452 0.13406,0.0021 0.11779,0.09152 -0.0362,0.198438 -0.15395,0.106913 -0.48137,0.48877 -0.7276,0.848571 -0.30468,0.445212 -0.44769,0.521698 -0.44769,0.239443 z M 65.60694,97.640282 c 0.1177,-0.181901 0.420696,-0.926041 0.67332,-1.653645 0.252627,-0.727605 0.412655,-1.055146 0.355621,-0.727869 -0.05704,0.327279 0.0042,0.661725 0.136043,0.74322 0.131861,0.08149 0.239745,-0.08996 0.239745,-0.380998 0,-0.603099 0.412226,-0.963662 0.654171,-0.572185 0.08886,0.143785 -0.03567,0.562446 -0.27673,0.930357 -0.241065,0.367914 -0.355941,0.668933 -0.255278,0.668933 0.100661,0 -0.170725,0.297656 -0.603078,0.661458 -0.846989,0.712695 -1.268645,0.86365 -0.923814,0.330729 z m 49.82348,-3.585104 c 0,-0.174625 -0.15848,-0.3175 -0.35217,-0.3175 -0.19369,0 -0.51147,-0.297656 -0.70617,-0.661458 -0.1947,-0.363802 -0.49973,-0.661458 -0.67786,-0.661458 -0.17812,0 -0.39613,-0.188331 -0.48445,-0.418516 -0.26955,-0.702421 -0.16479,-0.79951 0.26213,-0.242943 0.38605,0.503278 0.39667,0.490331 0.21693,-0.264583 l -0.18898,-0.79375 0.56893,0.661458 c 0.47398,0.551072 0.53986,0.573149 0.39475,0.132292 -0.14158,-0.430173 -0.0748,-0.405424 0.35685,0.132292 0.29206,0.363802 0.59893,0.840052 0.68193,1.058333 0.0924,0.242964 0.15901,0.268616 0.1718,0.06615 0.0115,-0.181901 0.15286,-0.330729 0.31416,-0.330729 0.1871,0 0.22821,0.2634 0.11357,0.727604 -0.19646,0.795454 -0.67142,1.441183 -0.67142,0.912812 z m -3.13683,-3.690937 c -0.28872,-0.674698 -0.28219,-0.690261 0.0898,-0.214014 0.22065,0.282475 0.40117,0.609897 0.40117,0.727605 0,0.402142 -0.17947,0.214407 -0.49099,-0.513591 z M 93.537213,81.09371 c -0.179599,-0.405747 -0.774211,-1.224582 -1.321358,-1.819635 -2.019695,-2.196537 -2.452677,-2.757669 -2.836252,-3.67569 l -0.392186,-0.938637 1.071295,1.138445 c 0.589214,0.626144 1.371007,1.644496 1.737315,2.263004 l 0.666017,1.12456 0.74326,-0.529246 c 0.948044,-0.675068 1.991219,-0.701175 2.040191,-0.05106 0.01982,0.263004 -0.192976,0.621199 -0.472861,0.795991 -0.563089,0.351655 -0.689088,0.07019 -0.191383,-0.427514 0.246943,-0.246944 0.195347,-0.3175 -0.232188,-0.3175 -0.887529,0 -1.293749,0.68036 -0.874236,1.464228 0.43807,0.818539 0.736936,0.81716 1.954376,-0.009 0.536094,-0.363802 1.088488,-0.661459 1.227548,-0.661459 0.139057,0 0.254656,-0.148828 0.256884,-0.330729 0.0028,-0.230227 0.07692,-0.215582 0.24384,0.0482 0.184941,0.292248 -0.133723,0.572524 -1.393114,1.225291 -0.898096,0.4655 -1.603136,0.979591 -1.566756,1.142426 0.132699,0.593952 -0.342728,0.275997 -0.660392,-0.441656 z"
       id="path254"
       sodipodi:nodetypes="csssssssscsssssssssssssscscsccscssssssssssssssssssscsscssssscsssssssssssssscsssssssssssssssssssscsscssssssssscssssssssssscssssssssssssssssscscssssssssscsssssscssssssssssssssssscssssssssssssssssssssssssssssssssssssscsssssssscssssssssscsccssssscssssssssssssscsscsssssscssssssssssssssscsssscsssssssssssssscsssssssssssssssssssssscsssccsccsssssssscssssssssssssscsssssssscsssssscssssssscssscssssssscssssssccsssssssssssssscscscsssssssscsscccssssscsssssscsssssscscssssssscssccssssssssssscssssscssssscssssssssssscsscssssssccsscsssccsscssccscssssssssssssssssscssssssssscssssssssssssccssccsssssssssssssscsscssssssssssssssssscsscssssssssssssss"
       inkscape:label="dark_level_portrait"
       transform="matrix(0.65359988,0,0,0.65359988,15.239154,23.554939)" /></g></svg>
