<?xml version="1.0" encoding="UTF-8" standalone="no"?>
<!-- Created with Inkscape (http://www.inkscape.org/) -->

<svg
   width="210mm"
   height="297mm"
   viewBox="0 0 210 297"
   version="1.1"
   id="svg7857"
   xml:space="preserve"
   inkscape:version="1.2.1 (9c6d41e410, 2022-07-14)"
   sodipodi:docname="icon_run.svg"
   xmlns:inkscape="http://www.inkscape.org/namespaces/inkscape"
   xmlns:sodipodi="http://sodipodi.sourceforge.net/DTD/sodipodi-0.dtd"
   xmlns="http://www.w3.org/2000/svg"
   xmlns:svg="http://www.w3.org/2000/svg"><sodipodi:namedview
     id="namedview7859"
     pagecolor="#505050"
     bordercolor="#ffffff"
     borderopacity="1"
     inkscape:showpageshadow="0"
     inkscape:pageopacity="0"
     inkscape:pagecheckerboard="1"
     inkscape:deskcolor="#505050"
     inkscape:document-units="mm"
     showgrid="false"
     inkscape:zoom="0.92114197"
     inkscape:cx="364.22181"
     inkscape:cy="354.99414"
     inkscape:window-width="1360"
     inkscape:window-height="697"
     inkscape:window-x="-8"
     inkscape:window-y="-8"
     inkscape:window-maximized="1"
     inkscape:current-layer="layer1" /><defs
     id="defs7854" /><g
     inkscape:label="Layer 1"
     inkscape:groupmode="layer"
     id="layer1"><path
       style="fill:#ffffff;fill-opacity:1;stroke-width:0.264583"
       d="m 39.544863,155.98627 c -2.170006,-0.70831 -3.729431,-2.01191 -4.776471,-3.9929 -0.595965,-1.12756 -0.699768,-1.65503 -0.702932,-3.57187 -0.0033,-1.98741 0.08494,-2.40893 0.758573,-3.62449 0.419257,-0.75653 1.014569,-1.60934 1.322916,-1.89513 0.308348,-0.28578 4.643017,-3.55856 9.632599,-7.27283 l 9.071965,-6.75323 1.036761,1.12475 c 1.783588,1.93497 5.296673,3.26322 7.73216,2.92343 0.477618,-0.0666 3.606834,-0.4756 6.953813,-0.9088 3.346979,-0.4332 6.442191,-0.85096 6.878249,-0.92835 0.786884,-0.13966 0.788868,-0.13694 0.264583,0.36213 -1.18314,1.12624 -31.572787,23.56055 -32.667342,24.11575 -1.463253,0.74223 -3.941096,0.93197 -5.504874,0.42154 z M 60.211166,130.9984 c -2.45987,-0.85007 -4.526735,-2.92449 -5.154556,-5.17341 -0.475562,-1.7035 -0.367094,-4.1259 0.246893,-5.51393 0.762688,-1.72418 2.475526,-3.47653 4.067588,-4.16142 1.045128,-0.4496 4.274944,-0.9671 14.215281,-2.27768 7.07458,-0.93274 13.011703,-1.69645 13.193604,-1.69714 0.181901,-7.9e-4 0.330729,-0.12081 0.330729,-0.26695 0,-0.14615 -2.273781,-3.3906 -5.052846,-7.2099 -2.779066,-3.8193 -5.50945,-7.718089 -6.067522,-8.663975 -3.877173,-6.571475 -2.640113,-12.428982 3.787317,-17.93308 3.000248,-2.569245 6.381279,-5.147869 8.938694,-6.817305 2.013688,-1.3145 8.428161,-4.882949 8.777358,-4.882949 0.622208,0 -0.08972,-0.641582 -2.471912,-2.227653 L 92.34955,62.393817 80.271274,64.267075 c -6.643053,1.030292 -12.589036,1.872301 -13.213297,1.87113 -2.285365,-0.0043 -4.271909,-1.665936 -4.797957,-4.013268 -0.601609,-2.684505 1.129517,-5.386634 3.843724,-5.999698 0.712526,-0.16094 7.217899,-1.208162 14.456383,-2.327161 11.587829,-1.791365 13.284885,-1.997391 14.198359,-1.723708 0.570614,0.17096 4.173217,2.378015 8.005784,4.904566 l 6.96831,4.59373 4.23333,-0.0334 c 3.50397,-0.02764 4.48406,0.05195 5.68854,0.461961 3.87869,1.320326 6.421,3.673336 8.25168,6.70903 1.01717,1.686715 1.15755,5.794558 1.15755,5.794558 l 0.0162,8.138224 c 0.0133,6.712489 0.33058,12.235921 0.34251,12.279421 0.0119,0.0435 5.78917,2.922691 12.83834,6.3982 12.10014,5.96584 12.85736,6.38061 13.54474,7.41932 1.4948,2.25878 1.03102,5.41021 -1.02511,6.96576 -1.07869,0.81608 -2.9053,1.31763 -3.95725,1.08658 -1.52555,-0.33507 -29.41363,-14.29459 -30.1624,-15.09795 -1.37588,-1.47617 -1.46861,-2.04892 -1.6769,-10.356731 -0.10672,-4.256485 -0.25162,-7.739063 -0.32201,-7.739063 -0.34441,0 -9.93376,4.258707 -13.42711,5.963092 -4.31649,2.105991 -9.921872,5.35581 -9.921872,5.752378 0,0.136319 2.999166,4.372433 6.664812,9.413584 3.82318,5.25779 6.92275,9.78619 7.26977,10.62095 1.23228,2.96428 0.52364,6.21379 -1.87905,8.61648 -0.92102,0.92102 -1.77906,1.4947 -2.67129,1.78602 -1.23604,0.40357 -40.759004,5.74705 -42.37039,5.72844 -0.411525,-0.005 -1.363488,-0.22125 -2.115474,-0.48112 z m 8.378706,-18.28301 c 0,-0.29551 4.776243,-17.834475 4.888434,-17.950953 0.04182,-0.04341 0.514929,0.719545 1.051361,1.695466 0.536435,0.975921 3.001436,4.563267 5.477783,7.971877 2.476344,3.40861 4.432662,6.26725 4.347368,6.35255 -0.130987,0.13098 -14.458484,2.14961 -15.434217,2.17455 -0.181901,0.005 -0.330729,-0.10492 -0.330729,-0.24349 z M 141.74716,77.763458 c -9.70571,-1.258533 -15.34254,-11.759481 -11.08323,-20.647157 1.26708,-2.643955 4.02078,-5.376783 6.71761,-6.666693 9.60635,-4.594778 20.64593,2.242214 20.66271,12.79676 0.006,3.992697 -1.14827,7.074789 -3.67627,9.813293 -3.38053,3.662018 -7.8393,5.323811 -12.62082,4.703797 z"
       id="path8131"
       sodipodi:nodetypes="sssssscscsssssssssscssssssscssssssscssacssssssssssssssscsssssscsssscsss"
       inkscape:label="icon_run"
       inkscape:export-filename="..\png\iron_run.png"
       inkscape:export-xdpi="15.15309"
       inkscape:export-ydpi="15.15309" /></g></svg>
