<?xml version="1.0" encoding="UTF-8" standalone="no"?>
<!-- Created with Inkscape (http://www.inkscape.org/) -->

<svg
   width="210mm"
   height="297mm"
   viewBox="0 0 210 297"
   version="1.1"
   id="svg7019"
   xml:space="preserve"
   inkscape:version="1.2.1 (9c6d41e410, 2022-07-14)"
   sodipodi:docname="icon_jog.svg"
   xmlns:inkscape="http://www.inkscape.org/namespaces/inkscape"
   xmlns:sodipodi="http://sodipodi.sourceforge.net/DTD/sodipodi-0.dtd"
   xmlns="http://www.w3.org/2000/svg"
   xmlns:svg="http://www.w3.org/2000/svg"><sodipodi:namedview
     id="namedview7021"
     pagecolor="#505050"
     bordercolor="#ffffff"
     borderopacity="1"
     inkscape:showpageshadow="0"
     inkscape:pageopacity="0"
     inkscape:pagecheckerboard="1"
     inkscape:deskcolor="#505050"
     inkscape:document-units="mm"
     showgrid="false"
     inkscape:zoom="1.8422839"
     inkscape:cx="297.72827"
     inkscape:cy="477.12516"
     inkscape:window-width="1360"
     inkscape:window-height="697"
     inkscape:window-x="-8"
     inkscape:window-y="-8"
     inkscape:window-maximized="1"
     inkscape:current-layer="layer1" /><defs
     id="defs7016" /><g
     inkscape:label="Layer 1"
     inkscape:groupmode="layer"
     id="layer1"><path
       style="fill:#ffffff;stroke-width:0.0846667;fill-opacity:1"
       d="m 92.608581,150.05823 c -0.515898,-0.16863 -0.903197,-0.43143 -1.321597,-0.89679 -0.396365,-0.44086 -0.243706,-0.07 -3.576796,-8.68965 l -1.083866,-2.80298 -5.002427,-1.15186 c -2.751335,-0.63353 -5.216539,-1.19313 -5.47823,-1.24357 -1.667054,-0.32132 -3.11089,-1.739 -3.513443,-3.44978 -0.163255,-0.69381 -0.116813,-1.8108 0.101207,-2.43417 0.08143,-0.23284 1.338876,-2.69029 2.794321,-5.461 1.455444,-2.77072 2.65889,-5.08995 2.674323,-5.15385 0.02423,-0.1003 -1.300176,-0.4279 -3.796685,-0.93913 -0.0081,-0.002 -1.090473,1.5686 -2.405252,3.48948 -1.314778,1.92087 -2.499598,3.63238 -2.632931,3.80334 -0.883874,1.13333 -2.841708,0.94275 -3.491671,-0.33989 -0.301492,-0.59496 -0.348036,-1.07301 -0.15826,-1.62549 0.199125,-0.57969 5.786053,-8.77014 6.324865,-9.27227 0.396498,-0.3695 0.842181,-0.54553 1.381223,-0.54553 0.457135,0 13.015318,2.66875 13.442772,2.85673 0.451418,0.19853 0.944239,0.65156 1.168863,1.0745 0.141071,0.26562 0.182654,0.48975 0.181709,0.97944 l -0.0012,0.635 -2.895947,5.73323 -2.895947,5.73324 0.316273,0.0861 c 4.3934,1.19538 7.082647,1.96642 7.370287,2.11316 0.425147,0.2169 0.965578,0.73529 1.161479,1.11412 0.255874,0.49481 4.948182,12.68885 5.039486,13.09627 0.26181,1.16825 -0.462749,2.58191 -1.601218,3.12407 -0.574101,0.2734 -1.541187,0.35041 -2.101315,0.16733 z m -32.804396,-7.00192 c -0.935514,-0.14541 -1.694232,-0.71088 -2.123324,-1.58249 -0.249433,-0.50667 -0.278635,-0.64198 -0.277895,-1.28761 6.77e-4,-0.55981 0.04198,-0.81093 0.184511,-1.12084 0.257199,-0.55924 0.892924,-1.20732 1.455117,-1.48341 l 0.476211,-0.23387 4.064,-0.0257 4.064,-0.0256 1.770016,-2.66252 c 0.97351,-1.46439 1.794982,-2.66252 1.825494,-2.66252 0.03051,0 0.105679,0.19588 0.167036,0.43528 0.389256,1.51879 1.637783,3.00529 3.122904,3.71813 0.33413,0.16037 0.607518,0.31892 0.607529,0.35232 1.1e-5,0.0334 -0.857464,1.33531 -1.9055,2.89313 -1.999826,2.97258 -2.207589,3.21633 -3.028787,3.55338 -0.433284,0.17784 -0.536631,0.18154 -5.225692,0.18733 -2.631017,0.003 -4.960046,-0.0215 -5.17562,-0.055 z m 30.279288,-14.54326 c -0.435631,-0.20818 -0.708294,-0.50043 -2.143212,-2.29721 l -1.182082,-1.48017 1.052313,-2.10334 1.052313,-2.10333 1.359293,1.69968 c 0.747612,0.93482 1.396222,1.69968 1.441356,1.69968 0.04514,0 1.516208,-0.59612 3.26905,-1.32471 1.752843,-0.72859 3.350548,-1.34314 3.550458,-1.36568 1.549318,-0.17463 2.761378,1.4847 2.139858,2.92948 -0.35263,0.81971 -0.50424,0.90408 -4.962783,2.76183 -3.759434,1.56646 -4.095433,1.69066 -4.645231,1.7171 -0.452853,0.0218 -0.67256,-0.01 -0.931333,-0.13333 z m -1.058334,-13.73398 c -1.123745,-0.12861 -2.324891,-0.75966 -3.086086,-1.62133 -0.457191,-0.51755 -1.006033,-1.60165 -1.139619,-2.25105 -0.332637,-1.61704 0.157048,-3.23122 1.343647,-4.42916 1.224732,-1.23645 2.852205,-1.74504 4.476609,-1.39896 3.187521,0.67911 4.83954,4.14204 3.3781,7.08112 -0.404296,0.81307 -1.364068,1.755 -2.178651,2.13815 -0.949074,0.44641 -1.807063,0.59419 -2.794,0.48123 z"
       id="path7152"
       sodipodi:nodetypes="csscsssssscsssssssssccccssssccsscsscccssssssscsscscccssscssscssssssss"
       inkscape:label="icon_jog"
       inkscape:export-filename="..\png\icon_run.png"
       inkscape:export-xdpi="35.976128"
       inkscape:export-ydpi="35.976128" /></g></svg>
