<?xml version="1.0" encoding="UTF-8" standalone="no"?>
<!-- Created with Inkscape (http://www.inkscape.org/) -->

<svg
   sodipodi:docname="icon_movement_speed.svg"
   inkscape:version="1.2.1 (9c6d41e410, 2022-07-14)"
   xml:space="preserve"
   id="svg5"
   version="1.1"
   viewBox="0 0 16.933333 16.933333"
   height="64"
   width="64"
   inkscape:export-filename="..\png\icon_empty.png"
   inkscape:export-xdpi="96"
   inkscape:export-ydpi="96"
   xmlns:inkscape="http://www.inkscape.org/namespaces/inkscape"
   xmlns:sodipodi="http://sodipodi.sourceforge.net/DTD/sodipodi-0.dtd"
   xmlns="http://www.w3.org/2000/svg"
   xmlns:svg="http://www.w3.org/2000/svg"><sodipodi:namedview
     id="namedview7"
     pagecolor="#505050"
     bordercolor="#ffffff"
     borderopacity="1"
     inkscape:showpageshadow="0"
     inkscape:pageopacity="0"
     inkscape:pagecheckerboard="1"
     inkscape:deskcolor="#505050"
     inkscape:document-units="px"
     showgrid="false"
     inkscape:zoom="5.6568543"
     inkscape:cx="15.998291"
     inkscape:cy="33.764349"
     inkscape:window-width="1360"
     inkscape:window-height="697"
     inkscape:window-x="-8"
     inkscape:window-y="-8"
     inkscape:window-maximized="1"
     inkscape:current-layer="layer1" /><defs
     id="defs2" /><g
     inkscape:label="Icon"
     inkscape:groupmode="layer"
     id="layer1"
     transform="matrix(0.99998815,0,0,1.0000001,8.0763182e-7,-1.5326207e-6)"><path
       id="path57733"
       style="display:none;fill:#ff0000;fill-opacity:1;stroke:#ff0000;stroke-width:0.264583;stroke-linecap:square;stroke-miterlimit:3;stroke-dasharray:none;stroke-opacity:1;paint-order:stroke fill markers"
       d="m 13.20046,15.48736 c -0.225215,0.152152 -0.458144,0.293753 -0.698078,0.424093 -0.239934,0.130339 -0.486872,0.249419 -0.740107,0.356528 -1.012938,0.428437 -2.1266058,0.665352 -3.2956086,0.665352 -1.1690027,0 -2.2826712,-0.236915 -3.2956089,-0.665352 C 4.917823,16.160872 4.6708841,16.041792 4.4309501,15.911453 4.1910162,15.781113 3.9580872,15.639512 3.7328724,15.48736 L 8.4666662,8.4666665 Z"
       sodipodi:nodetypes="csssssccc"
       inkscape:label="cutter_copy" /><path
       id="path22502"
       style="display:none;fill:#000000;fill-opacity:0.5;stroke:#ae8625;stroke-width:0.264695;stroke-linecap:butt;stroke-linejoin:miter;stroke-miterlimit:3;stroke-dasharray:none;stroke-opacity:1;paint-order:stroke markers fill"
       inkscape:label="quarter_arc_copy"
       d="m 8.4645658,15.754633 c 0,0 -0.363815,-0.0069 -0.5451486,-0.02056 -0.181301,-0.01363 -0.3621541,-0.034 -0.5419972,-0.06117 C 7.1976541,15.645688 7.0189643,15.611734 6.8417249,15.571111 6.6642596,15.530446 6.4883725,15.483124 6.3144329,15.429244 6.140685,15.375409 5.9690026,15.315069 5.7997455,15.248349 5.6304258,15.181678 5.4636485,15.108672 5.2997634,15.029482 5.1359283,14.950112 4.9751073,14.864615 4.8176378,14.77317 4.6601981,14.68194 4.5062096,14.584833 4.3559947,14.48205 4.2056506,14.379121 4.0591948,14.270578 3.9169347,14.156649 3.7747766,14.04285 3.6369051,13.923753 3.5036092,13.799608 3.3701656,13.675279 3.2414037,13.545978 3.1175939,13.411975 2.993966,13.278121 2.8753649,13.139673 2.7620392,12.99692 2.6485861,12.854064 2.5404962,12.706995 2.4379963,12.556022 2.3356426,12.405178 2.2389399,12.250545 2.1480908,12.092446 2.0570277,11.934317 1.9718872,11.772823 1.892848,11.608302 1.8139885,11.443731 1.7412862,11.276256 1.6748936,11.106227 1.6084523,10.936261 1.5483634,10.76386 1.4947528,10.589385 1.4410975,10.414717 1.3939724,10.238093 1.3534764,10.059884 1.3130249,9.8819027 1.2792141,9.7024648 1.2521146,9.5219465 1.2250571,9.3413505 1.2047355,9.1598015 1.1911924,8.9776801 1.1832145,8.851602 1.1784862,8.7253377 1.1770123,8.599014 H 0.13503283 c 0.09146,4.55453 3.79307037,8.199452 8.32953287,8.201971 z"
       sodipodi:nodetypes="caccccccccccccccccccccccc" /><path
       id="path10399"
       style="display:none;fill:#000000;fill-opacity:0.5;stroke:#ae8625;stroke-width:0.264695;stroke-linecap:butt;stroke-linejoin:miter;stroke-miterlimit:3;stroke-dasharray:none;stroke-opacity:1;paint-order:stroke markers fill"
       inkscape:label="bottom_arc_copy"
       d="m 16.798301,8.599014 h -1.046182 a 7.2938558,7.3243939 0 0 1 -0.01418,0.3786661 7.2938558,7.3243939 0 0 1 -0.06092,0.5442664 7.2938558,7.3243939 0 0 1 -0.101364,0.5379375 7.2938558,7.3243939 0 0 1 -0.141276,0.529501 7.2938558,7.3243939 0 0 1 -0.18014,0.516842 7.2938558,7.3243939 0 0 1 -0.217955,0.502075 7.2938558,7.3243939 0 0 1 -0.255243,0.484144 7.2938558,7.3243939 0 0 1 -0.289905,0.463576 7.2938558,7.3243939 0 0 1 -0.324043,0.440898 7.2938558,7.3243939 0 0 1 -0.355556,0.415055 7.2938558,7.3243939 0 0 1 -0.386015,0.387633 7.2938558,7.3243939 0 0 1 -0.413325,0.357041 7.2938558,7.3243939 0 0 1 -0.439059,0.325401 7.2938558,7.3243939 0 0 1 -0.461644,0.29112 7.2938558,7.3243939 0 0 1 -0.482127,0.256312 7.2938558,7.3243939 0 0 1 -0.499981,0.218867 7.2938558,7.3243939 0 0 1 -0.514688,0.180895 7.2938558,7.3243939 0 0 1 -0.527291,0.141867 7.2938558,7.3243939 0 0 1 -0.5356954,0.101792 7.2938558,7.3243939 0 0 1 -0.5419974,0.06117 7.2938558,7.3243939 0 0 1 -0.5451484,0.02056 A 7.2938558,7.3243939 0 0 1 7.9194172,15.734077 7.2938558,7.3243939 0 0 1 7.37742,15.672903 7.2938558,7.3243939 0 0 1 6.8417249,15.571111 7.2938558,7.3243939 0 0 1 6.3144329,15.429244 7.2938558,7.3243939 0 0 1 5.7997455,15.248349 7.2938558,7.3243939 0 0 1 5.2997634,15.029482 7.2938558,7.3243939 0 0 1 4.8176378,14.77317 7.2938558,7.3243939 0 0 1 4.3559947,14.48205 7.2938558,7.3243939 0 0 1 3.9169347,14.156649 7.2938558,7.3243939 0 0 1 3.5036092,13.799608 7.2938558,7.3243939 0 0 1 3.1175939,13.411975 7.2938558,7.3243939 0 0 1 2.7620392,12.99692 7.2938558,7.3243939 0 0 1 2.4379963,12.556022 7.2938558,7.3243939 0 0 1 2.1480908,12.092446 7.2938558,7.3243939 0 0 1 1.892848,11.608302 7.2938558,7.3243939 0 0 1 1.6748936,11.106227 7.2938558,7.3243939 0 0 1 1.4947528,10.589385 7.2938558,7.3243939 0 0 1 1.3534764,10.059884 7.2938558,7.3243939 0 0 1 1.2521146,9.5219465 7.2938558,7.3243939 0 0 1 1.1911924,8.9776801 7.2938558,7.3243939 0 0 1 1.1770123,8.599014 H 0.13503283 A 8.3358357,8.3707354 0 0 0 8.4645657,16.800985 8.3358357,8.3707354 0 0 0 16.798301,8.599014 Z" /><path
       id="path22481"
       style="display:none;fill:#000000;fill-opacity:0.5;stroke:#ae8625;stroke-width:0.264695;stroke-linecap:butt;stroke-linejoin:miter;stroke-miterlimit:3;stroke-dasharray:none;stroke-opacity:1;paint-order:stroke markers fill"
       inkscape:label="top_arc_copy"
       d="m 16.798298,8.3343185 h -1.046182 a 7.2938558,7.3243939 0 0 0 -0.01418,-0.378666 7.2938558,7.3243939 0 0 0 -0.06092,-0.544266 7.2938558,7.3243939 0 0 0 -0.101364,-0.537938 7.2938558,7.3243939 0 0 0 -0.141276,-0.529501 7.2938558,7.3243939 0 0 0 -0.18014,-0.516842 7.2938558,7.3243939 0 0 0 -0.217955,-0.502075 7.2938558,7.3243939 0 0 0 -0.255243,-0.484144 7.2938558,7.3243939 0 0 0 -0.289905,-0.463576 7.2938558,7.3243939 0 0 0 -0.324043,-0.440898 7.2938558,7.3243939 0 0 0 -0.355556,-0.415055 7.2938558,7.3243939 0 0 0 -0.386015,-0.387633 7.2938558,7.3243939 0 0 0 -0.413325,-0.357041 7.2938558,7.3243939 0 0 0 -0.439059,-0.325401 7.2938558,7.3243939 0 0 0 -0.461644,-0.29112 7.2938558,7.3243939 0 0 0 -0.482127,-0.256312 7.2938558,7.3243939 0 0 0 -0.499981,-0.218867 7.2938558,7.3243939 0 0 0 -0.514688,-0.180895 7.2938558,7.3243939 0 0 0 -0.527291,-0.141867 7.2938558,7.3243939 0 0 0 -0.5356956,-0.101792 7.2938558,7.3243939 0 0 0 -0.5419974,-0.06117 7.2938558,7.3243939 0 0 0 -0.5451484,-0.02056 7.2938558,7.3243939 0 0 0 -0.5451486,0.02056 7.2938558,7.3243939 0 0 0 -0.5419972,0.06117 7.2938558,7.3243939 0 0 0 -0.535695,0.101792 7.2938558,7.3243939 0 0 0 -0.527292,0.141867 7.2938558,7.3243939 0 0 0 -0.514687,0.180895 7.2938558,7.3243939 0 0 0 -0.499982,0.218867 7.2938558,7.3243939 0 0 0 -0.482126,0.256312 7.2938558,7.3243939 0 0 0 -0.461643,0.29112 7.2938558,7.3243939 0 0 0 -0.43906,0.325401 7.2938558,7.3243939 0 0 0 -0.413326,0.357041 7.2938558,7.3243939 0 0 0 -0.386015,0.387633 7.2938558,7.3243939 0 0 0 -0.355555,0.415055 7.2938558,7.3243939 0 0 0 -0.324043,0.440898 7.2938558,7.3243939 0 0 0 -0.289905,0.463576 7.2938558,7.3243939 0 0 0 -0.255243,0.484144 7.2938558,7.3243939 0 0 0 -0.217954,0.502075 7.2938558,7.3243939 0 0 0 -0.180141,0.516842 7.2938558,7.3243939 0 0 0 -0.141276,0.529501 7.2938558,7.3243939 0 0 0 -0.101362,0.537938 7.2938558,7.3243939 0 0 0 -0.06092,0.544266 7.2938558,7.3243939 0 0 0 -0.01418,0.378666 H 0.13503283 a 8.3358357,8.3707354 0 0 1 8.32952967,-8.201971 8.3358357,8.3707354 0 0 1 8.3337355,8.201971 z" /><circle
       style="display:inline;fill:none;fill-opacity:1;stroke:#ae8625;stroke-width:0.463021;stroke-linecap:butt;stroke-linejoin:bevel;stroke-dasharray:none;stroke-opacity:1;paint-order:stroke fill markers"
       id="circle10397"
       cx="8.4666662"
       cy="8.4666662"
       inkscape:label="circle"
       r="7.1768227" /><path
       id="path1099"
       style="display:inline;fill:#000000;fill-opacity:0.5;stroke:#000000;stroke-width:0.263818;stroke-linecap:butt;stroke-linejoin:bevel;stroke-dasharray:none;stroke-opacity:1;paint-order:stroke fill markers"
       inkscape:label="background"
       d="M 8.4653416,1.3093048 A 7.1560371,7.1560445 0 0 0 7.9304937,1.3293998 7.1560371,7.1560445 0 0 0 7.3987376,1.3891713 7.1560371,7.1560445 0 0 0 6.8731646,1.4886181 7.1560371,7.1560445 0 0 0 6.3558357,1.627225 7.1560371,7.1560445 0 0 0 5.8508735,1.8039622 7.1560371,7.1560445 0 0 0 5.3603389,2.0177984 7.1560371,7.1560445 0 0 0 4.8873229,2.2682188 7.1560371,7.1560445 0 0 0 4.4344026,2.5526469 7.1560371,7.1560445 0 0 0 4.0036389,2.8705672 7.1560371,7.1560445 0 0 0 3.5981232,3.2194039 7.1560371,7.1560445 0 0 0 3.2194014,3.5981258 7.1560371,7.1560445 0 0 0 2.8705653,4.0036422 7.1560371,7.1560445 0 0 0 2.5526451,4.434406 7.1560371,7.1560445 0 0 0 2.2682173,4.887327 7.1560371,7.1560445 0 0 0 2.0177972,5.3603432 7.1560371,7.1560445 0 0 0 1.8039612,5.8508786 7.1560371,7.1560445 0 0 0 1.6272246,6.3558414 7.1560371,7.1560445 0 0 0 1.4886172,6.8731708 7.1560371,7.1560445 0 0 0 1.389171,7.3987442 7.1560371,7.1560445 0 0 0 1.329401,7.9305011 7.1560371,7.1560445 0 0 0 1.309306,8.4653495 a 7.1560371,7.1560445 0 0 0 0.020095,0.5348481 7.1560371,7.1560445 0 0 0 0.059771,0.5317569 7.1560371,7.1560445 0 0 0 0.099446,0.5255735 7.1560371,7.1560445 0 0 0 0.1386074,0.517331 7.1560371,7.1560445 0 0 0 0.1767366,0.50496 7.1560371,7.1560445 0 0 0 0.213836,0.490536 7.1560371,7.1560445 0 0 0 0.2504201,0.473017 7.1560371,7.1560445 0 0 0 0.2844278,0.452919 7.1560371,7.1560445 0 0 0 0.3179202,0.430766 7.1560371,7.1560445 0 0 0 0.3488361,0.405515 7.1560371,7.1560445 0 0 0 0.3787218,0.378723 7.1560371,7.1560445 0 0 0 0.4055157,0.348836 7.1560371,7.1560445 0 0 0 0.4307637,0.317921 7.1560371,7.1560445 0 0 0 0.4529203,0.284427 7.1560371,7.1560445 0 0 0 0.473016,0.250421 7.1560371,7.1560445 0 0 0 0.4905346,0.213837 7.1560371,7.1560445 0 0 0 0.5049622,0.176735 7.1560371,7.1560445 0 0 0 0.5173289,0.138608 7.1560371,7.1560445 0 0 0 0.525573,0.09945 7.1560371,7.1560445 0 0 0 0.5317561,0.05976 7.1560371,7.1560445 0 0 0 0.5348479,0.02009 7.1560371,7.1560445 0 0 0 0.5348478,-0.02009 7.1560371,7.1560445 0 0 0 0.531756,-0.05976 7.1560371,7.1560445 0 0 0 0.5255728,-0.09945 7.1560371,7.1560445 0 0 0 0.517331,-0.138608 7.1560371,7.1560445 0 0 0 0.504962,-0.176735 7.1560371,7.1560445 0 0 0 0.490535,-0.213837 7.1560371,7.1560445 0 0 0 0.473015,-0.250421 7.1560371,7.1560445 0 0 0 0.45292,-0.284427 7.1560371,7.1560445 0 0 0 0.430763,-0.317921 7.1560371,7.1560445 0 0 0 0.405516,-0.348836 7.1560371,7.1560445 0 0 0 0.378719,-0.378723 7.1560371,7.1560445 0 0 0 0.348837,-0.405515 7.1560371,7.1560445 0 0 0 0.317922,-0.430766 7.1560371,7.1560445 0 0 0 0.284425,-0.452919 7.1560371,7.1560445 0 0 0 0.250423,-0.473017 7.1560371,7.1560445 0 0 0 0.213835,-0.490536 7.1560371,7.1560445 0 0 0 0.176738,-0.50496 7.1560371,7.1560445 0 0 0 0.138606,-0.517331 7.1560371,7.1560445 0 0 0 0.09946,-0.5255735 7.1560371,7.1560445 0 0 0 0.05976,-0.5317569 7.1560371,7.1560445 0 0 0 0.0201,-0.5348481 7.1560371,7.1560445 0 0 0 -0.0026,-0.1844662 7.1560371,7.1560445 0 0 0 -0.0067,-0.1839508 7.1560371,7.1560445 0 0 0 -0.01182,-0.1839505 7.1560371,7.1560445 0 0 0 -0.017,-0.1834355 7.1560371,7.1560445 0 0 0 -0.02112,-0.1829204 7.1560371,7.1560445 0 0 0 -0.02579,-0.1824048 7.1560371,7.1560445 0 0 0 -0.03091,-0.1818898 7.1560371,7.1560445 0 0 0 -0.03556,-0.1808591 7.1560371,7.1560445 0 0 0 -0.03968,-0.1798287 7.1560371,7.1560445 0 0 0 -0.04483,-0.178798 7.1560371,7.1560445 0 0 0 -0.04895,-0.1772524 7.1560371,7.1560445 0 0 0 -0.0541,-0.1767367 7.1560371,7.1560445 0 0 0 -0.05821,-0.1746759 7.1560371,7.1560445 0 0 0 -0.06287,-0.1731301 7.1560371,7.1560445 0 0 0 -0.06698,-0.1715844 7.1560371,7.1560445 0 0 0 -0.07162,-0.1700385 7.1560371,7.1560445 0 0 0 -0.07626,-0.1674621 7.1560371,7.1560445 0 0 0 -0.07986,-0.1659165 7.1560371,7.1560445 0 0 0 -0.0845,-0.1638552 A 7.1560371,7.1560445 0 0 0 14.693383,4.9403998 7.1560371,7.1560445 0 0 0 14.600119,4.7816971 7.1560371,7.1560445 0 0 0 14.50325,4.6245403 7.1560371,7.1560445 0 0 0 14.402773,4.470475 7.1560371,7.1560445 0 0 0 14.297656,4.3189861 7.1560371,7.1560445 0 0 0 14.188934,4.1700737 7.1560371,7.1560445 0 0 0 14.076607,4.0242528 7.1560371,7.1560445 0 0 0 13.960157,3.8810084 7.1560371,7.1560445 0 0 0 13.840615,3.7413706 7.1560371,7.1560445 0 0 0 13.716948,3.6043091 7.1560371,7.1560445 0 0 0 13.590194,3.4708548 7.1560371,7.1560445 0 0 0 13.459833,3.340492 7.1560371,7.1560445 0 0 0 13.326377,3.2137359 7.1560371,7.1560445 0 0 0 13.189318,3.0900717 7.1560371,7.1560445 0 0 0 13.049678,2.9705294 7.1560371,7.1560445 0 0 0 12.906436,2.8540787 7.1560371,7.1560445 0 0 0 12.760614,2.7417502 7.1560371,7.1560445 0 0 0 12.611701,2.6330286 7.1560371,7.1560445 0 0 0 12.460212,2.5279139 7.1560371,7.1560445 0 0 0 12.306148,2.4274368 7.1560371,7.1560445 0 0 0 12.148991,2.3305662 7.1560371,7.1560445 0 0 0 11.990289,2.2373027 7.1560371,7.1560445 0 0 0 11.828495,2.1486765 7.1560371,7.1560445 0 0 0 11.664639,2.0641726 7.1560371,7.1560445 0 0 0 11.498723,1.9843059 7.1560371,7.1560445 0 0 0 11.331261,1.9080463 7.1560371,7.1560445 0 0 0 11.161222,1.8364242 7.1560371,7.1560445 0 0 0 10.989639,1.7694392 7.1560371,7.1560445 0 0 0 10.816508,1.7065765 7.1560371,7.1560445 0 0 0 10.641833,1.6483512 7.1560371,7.1560445 0 0 0 10.465096,1.5942481 7.1560371,7.1560445 0 0 0 10.287843,1.5452976 7.1560371,7.1560445 0 0 0 10.109046,1.5004695 7.1560371,7.1560445 0 0 0 9.929217,1.4607934 7.1560371,7.1560445 0 0 0 9.7483578,1.4252401 7.1560371,7.1560445 0 0 0 9.5664687,1.3943238 7.1560371,7.1560445 0 0 0 9.3840637,1.3685606 7.1560371,7.1560445 0 0 0 9.2011438,1.3474347 7.1560371,7.1560445 0 0 0 9.0177085,1.3304304 7.1560371,7.1560445 0 0 0 8.8337578,1.3185796 7.1560371,7.1560445 0 0 0 8.6498072,1.3118808 7.1560371,7.1560445 0 0 0 8.4653416,1.3093048 Z" /><path
       id="path302"
       style="display:none;fill:#ffffff;fill-opacity:1;stroke:none;stroke-width:0.00734186;stroke-opacity:1"
       d="M 11.004737,12.426818 C 10.708695,12.392543 10.557657,12.114423 10.483578,11.857779 10.291857,11.347874 10.101989,10.8361 9.9033112,10.329049 9.2271969,10.199748 8.5298165,10.140192 7.8549189,9.9942467 7.4338284,9.8493531 7.2839701,9.2862013 7.5423554,8.9334619 7.8887549,8.2846527 8.2359489,7.6370779 8.5787433,6.9864618 8.3553313,6.9545394 7.9244998,6.7890406 7.7236113,6.8960891 7.4394669,7.3414434 7.1879496,7.8079046 6.8907558,8.2439306 6.6719329,8.5019598 6.188632,8.3064612 6.221349,7.9680002 6.2234801,7.7326939 6.4268232,7.5592656 6.518696,7.3549582 6.7386009,7.006734 6.934069,6.6419226 7.1703803,6.3050644 7.439569,5.9853082 7.887716,6.0394874 8.2513818,6.1145826 8.7066457,6.1957516 9.1738925,6.2236202 9.6214485,6.3380566 10.035245,6.4855565 10.179668,7.0412403 9.9254216,7.387995 9.6254225,7.960337 9.3173034,8.5280039 9.0149382,9.0986542 c 0.3894522,0.091225 0.8187522,0.1095971 1.2152548,0.2096575 0.398412,0.1164785 0.651704,0.4847534 0.756692,0.8682603 0.196737,0.550752 0.434112,1.088055 0.606648,1.645928 0.05761,0.335837 -0.254118,0.647015 -0.588796,0.604318 z M 4.6650542,11.382274 C 4.259511,11.327954 4.0813747,10.759352 4.3886401,10.487258 4.6277655,10.236 5.0128456,10.344877 5.3219669,10.29892 5.7546979,10.27663 6.1875442,10.25406 6.6202233,10.23329 6.8201441,10.046347 7.045093,9.6553854 7.2287729,9.5826034 7.3217959,9.9392631 7.6448931,10.204272 8.0017573,10.255423 7.7351458,10.54359 7.5178964,10.89061 7.2014285,11.126845 c -0.3762138,0.249354 -0.8557187,0.159914 -1.2833168,0.208352 -0.4169645,0.01891 -0.8360559,0.05374 -1.2530575,0.04708 z M 10.575741,8.3655153 C 10.284537,8.3251126 10.050429,8.0962222 9.9221272,7.847641 10.049967,7.5891411 10.22395,7.3454126 10.274489,7.0576099 c 0.163372,0.1561797 0.272339,0.4060307 0.459273,0.5123202 0.503715,-0.1374303 1.002138,-0.2965536 1.508421,-0.4236036 0.319325,-0.070162 0.578708,0.3231836 0.398736,0.5926098 -0.156531,0.239382 -0.48502,0.2162195 -0.72565,0.3175762 -0.379041,0.1011746 -0.752576,0.2284289 -1.135528,0.3134204 -0.06782,4.44e-4 -0.136613,0.00653 -0.204,-0.00444 z M 11.110596,5.3986922 A 0.89611488,0.89611488 0 0 1 10.214485,6.2948084 0.89611488,0.89611488 0 0 1 9.3183689,5.3986922 0.89611488,0.89611488 0 0 1 10.214485,4.502576 0.89611488,0.89611488 0 0 1 11.110596,5.3986922 Z"
       inkscape:label="movement_speed" /><path
       id="path57805"
       style="display:none;fill:#000000;fill-opacity:1;stroke:#000000;stroke-width:0.264583;stroke-linecap:butt;stroke-linejoin:miter;stroke-miterlimit:3;stroke-dasharray:none;stroke-opacity:1;paint-order:stroke markers fill"
       inkscape:label="segment_three"
       d="m 12.538253,14.505574 0.58446,0.866614 c 0.420883,-0.285324 0.814626,-0.607952 1.176156,-0.963765 1.504733,-1.480943 2.453842,-3.531382 2.499589,-5.8094648 H 15.75201 c -0.0015,0.1263235 -0.006,0.2527102 -0.01395,0.3787882 -0.01354,0.1821212 -0.03392,0.363557 -0.06098,0.5441528 -0.0271,0.1805182 -0.06083,0.3599706 -0.101286,0.5379518 -0.0405,0.178209 -0.08794,0.355015 -0.141593,0.529683 -0.05361,0.174475 -0.113393,0.346799 -0.179834,0.516765 -0.06639,0.170028 -0.139215,0.337207 -0.218075,0.501778 -0.07904,0.164521 -0.164218,0.326079 -0.255281,0.484208 -0.09085,0.158099 -0.187551,0.312694 -0.289905,0.463538 -0.1025,0.150972 -0.210558,0.29846 -0.324011,0.441316 -0.113326,0.142753 -0.231906,0.281108 -0.355534,0.414962 -0.12381,0.134003 -0.252579,0.263244 -0.386023,0.387573 -0.133296,0.124145 -0.271254,0.243285 -0.413412,0.357084 -0.142259,0.113929 -0.288389,0.222116 -0.438733,0.325045 -0.01163,0.008 -0.02347,0.01588 -0.03514,0.02377 z" /><path
       id="path57789"
       style="display:none;fill:#ae8625;fill-opacity:1;stroke:#000000;stroke-width:0.264583;stroke-linecap:butt;stroke-linejoin:miter;stroke-miterlimit:3;stroke-dasharray:none;stroke-opacity:1;paint-order:stroke markers fill"
       inkscape:label="segment_one"
       d="m 0.13487549,8.5989582 c 0.04573,2.2772628 0.99414731,4.3270548 2.49803871,5.8079138 0.3618908,0.356349 0.7562963,0.679632 1.1777058,0.965316 L 4.394047,14.507641 C 4.381345,14.499041 4.368455,14.490461 4.355806,14.481801 4.2054624,14.378874 4.0593334,14.270687 3.9170735,14.156758 3.7749155,14.042959 3.6369578,13.923819 3.503662,13.799674 3.3702186,13.675345 3.2414488,13.546104 3.1176391,13.412101 2.9940113,13.278247 2.8754308,13.139892 2.7621053,12.997139 2.6486523,12.854283 2.5405938,12.706795 2.438094,12.555823 2.3357404,12.404979 2.2390383,12.250384 2.1481892,12.092285 2.0571262,11.934156 1.9719468,11.772598 1.8929077,11.608077 1.8140483,11.443506 1.7412257,11.276327 1.6748331,11.106299 1.6083919,10.936333 1.5486097,10.764009 1.4949992,10.589534 1.4413439,10.414866 1.3939017,10.23806 1.3534057,10.059851 1.3129543,9.8818698 1.2792194,9.7024173 1.2521199,9.5218992 1.2250625,9.3413034 1.2046848,9.1598676 1.1911417,8.9777464 1.1831638,8.8516684 1.178663,8.7252817 1.1771891,8.5989582 Z" /><path
       id="path22712"
       style="display:none;fill:#000000;fill-opacity:1;stroke:#000000;stroke-width:0.264583;stroke-linecap:butt;stroke-linejoin:miter;stroke-miterlimit:3;stroke-dasharray:none;stroke-opacity:1;paint-order:stroke markers fill"
       inkscape:label="segment_two"
       d="m 12.538253,14.505574 c -0.139125,0.09402 -0.281595,0.183516 -0.426848,0.267684 -0.15747,0.09145 -0.318305,0.176945 -0.482141,0.256315 -0.163885,0.07919 -0.330392,0.151921 -0.499711,0.218592 -0.169257,0.06672 -0.340949,0.127032 -0.514697,0.180867 -0.173939,0.05388 -0.350152,0.101445 -0.527617,0.14211 -0.1772389,0.04062 -0.3556016,0.07459 -0.5353674,0.101803 -0.1798431,0.02717 -0.3607239,0.04738 -0.5420858,0.06098 -0.181397,0.01368 -0.3632786,0.02064 -0.5451864,0.02067 -0.1819077,-2.3e-5 -0.3637891,-0.007 -0.5451863,-0.02067 -0.1813618,-0.0136 -0.3622429,-0.03381 -0.5420858,-0.06098 C 7.1975616,15.64573 7.0191987,15.611765 6.8419595,15.571142 6.6644944,15.530477 6.4882826,15.482912 6.3143431,15.429032 6.1405954,15.375197 5.9689028,15.314885 5.7996459,15.248165 5.6303264,15.181494 5.4638197,15.108763 5.2999348,15.029573 5.1360999,14.950203 4.975263,14.864703 4.8177937,14.773258 4.6736115,14.68971 4.5321927,14.600893 4.394047,14.507641 L 3.81062,15.372188 c 1.3298206,0.901519 2.9315687,1.427897 4.6539794,1.428853 1.7238816,-8.4e-5 3.3272266,-0.526622 4.6581136,-1.428853 z" /></g></svg>
